<svg id="Layer_1" data-name="Layer 1" xmlns="http://www.w3.org/2000/svg" viewBox="0 0 249.95 139.97"><defs><style>.cls-1,.cls-2{fill:#be1e2d;}.cls-1{fill-rule:evenodd;}</style></defs><title>brand</title><path class="cls-1" d="M80.76,71.71c0.7-14.39,5.92-26.18,17.16-35a46.08,46.08,0,0,1,55.32-.94,45.92,45.92,0,0,1,14.4,17.58A41.82,41.82,0,0,1,171.51,75a43.44,43.44,0,0,1-14.81,30.13,46,46,0,0,1-58.79,1.68A42.32,42.32,0,0,1,86.3,93a43.25,43.25,0,0,1-4.77-13.64C81.14,76.76,81,74.08,80.76,71.71Zm77-.19a31.25,31.25,0,0,0-31.15-30.76c-17.49-.33-32,13.44-32,30.53,0,17.84,13.34,31.48,31.83,31.68A31,31,0,0,0,157.77,71.52ZM107.5,111c1.4,0.49,2.73.92,4,1.43,1.72,0.67,3.39,1.51,5.14,2.09a6.75,6.75,0,0,0,8.25-3.08,5,5,0,0,0-.67-6.12,6.84,6.84,0,0,0-4.16-2c-3-.38-5.59.69-8.21,1.79a17.41,17.41,0,0,1-8.27,1.58c-2.41-.2-4.41-3.09-3.43-5.12a3.78,3.78,0,0,1,1.41-1,5.57,5.57,0,0,1,.66,1.7,3.77,3.77,0,0,1-.76,1.44,4.7,4.7,0,0,0,1.2,1,2.51,2.51,0,0,0,1.85.17,2.13,2.13,0,0,0,.52-1.73,15.12,15.12,0,0,0-.74-2.64l0.3-.14a15.36,15.36,0,0,1,1.19,3,2.58,2.58,0,0,0,2.23,2.42c1.76-1.48,1.88-2.41.46-4.17-0.58-.72-1.25-1.36-2.05-2.22,1.75,0.67,2.55,2,3.43,3.22a2.25,2.25,0,0,0,2.38.93,2.75,2.75,0,0,0,2.25-1.42c-2.63-1.5-5.15-2.93-7.66-4.38a5.57,5.57,0,0,0-5.95.06A5.46,5.46,0,0,0,98,103.3c0.21,2.91,2.9,5.42,6.14,5.73a14.05,14.05,0,0,0,8.37-2,12.62,12.62,0,0,1,6.33-2c2.34,0,4,1.08,4.58,2.71a2.29,2.29,0,0,1-1.06,2.83,1.1,1.1,0,0,1-1.57-.61,0.86,0.86,0,0,1,.59-1.38c1-.24.53-0.8,0.28-1.24a2.28,2.28,0,0,0-2.94-.7,2.41,2.41,0,0,0-.59,3.17,16.75,16.75,0,0,0,1.55,1.85,4.07,4.07,0,0,1-2.58-3.45,1.88,1.88,0,0,0-.94-1.28c-0.72-.23-1.57-0.54-2.25.35-1,1.33-1.07,2,.19,3.13,1.07,0.93,2.26,1.72,3.4,2.57a6.19,6.19,0,0,1-2.47-1c-1-.71-1.83-1.62-2.78-2.39A3.28,3.28,0,0,0,107.5,111ZM88.74,79.95c1.21-.22,2.26-0.44,2.54-1.64,0.23-1-.44-1.93-1.64-2.47-0.13.17-.26,0.36-0.41,0.53-0.39.44-.83,0.83-1.39,0.3A1,1,0,0,1,87.78,75,2.47,2.47,0,0,1,89,74.42c1.42-.21,2.69.87,3.25,2.69,0.74,2.38-.25,4.46-1.1,6.6a69.71,69.71,0,0,0-2.54,7.46c-0.71,2.68,1,6.46,3.12,7.5a6.27,6.27,0,0,0,6.56-.77,5.65,5.65,0,0,0,1.6-6.58,77.43,77.43,0,0,0-4.55-7.95c-2.13,1.41-2.1,3.07-.08,4.41A32.12,32.12,0,0,1,97.93,90c-1.28-.57-2.38-1.33-3.57-1.92a1.54,1.54,0,0,0-2.11.48A2.56,2.56,0,0,0,91.89,90c0.12,0.93.81,1.19,1.72,1.24a4,4,0,0,1,3.21,1.33c-2.91-1.11-3.38-1.13-4.1-.27a2.3,2.3,0,0,0-.2,2.94,1.73,1.73,0,0,0,2.11.82,1.61,1.61,0,0,1,0-.52,2.46,2.46,0,0,1,.57-1.31,1.47,1.47,0,0,1,1.37.47,1.71,1.71,0,0,1-.11,1.55,2.67,2.67,0,0,1-1.6.84,3.79,3.79,0,0,1-3.93-3.06,8.06,8.06,0,0,1,.38-5.44c0.83-1.87,1.65-3.75,2.48-5.62a8.4,8.4,0,0,0,.67-5.51c-0.9-3.86-3.9-5.85-7.41-4.78-2.58.78-4.88,4.72-4,7.64,0.92,3.18,2.31,6.22,3.5,9.33,2.39-1.29,2.8-3.38,1.1-5.37-0.64-.75-1.31-1.48-1.92-2.25A5.46,5.46,0,0,1,85.14,81c0.86,0.79,1.56,1.64,2.3,2.45,0.49,0.53,1.06,1.06,1.85.6s1.82-.8,1.63-2.22S89.85,80.37,88.74,79.95Zm77.12,10c1.06-2.49,2-4.92,3.12-7.31a10.45,10.45,0,0,0,.75-4.72c-0.07-2.63-2.8-4.85-5-5.16a5.67,5.67,0,0,0-6,4,10.6,10.6,0,0,0,.62,7.39,50.14,50.14,0,0,1,2.27,5.69c0.79,2.71.52,5.32-1.63,7.46a3,3,0,0,1-3.57.64A1.5,1.5,0,0,1,155.7,96a1.66,1.66,0,0,1,1.17-.77c0.87-.14,1,0.61,1.08,1.24a1.52,1.52,0,0,0,.15.32,2.3,2.3,0,0,0,2-2.58c-0.16-1.17-1-1.52-3.49-1.52a15.85,15.85,0,0,1,2.32-.47,3.42,3.42,0,0,0,1.32-.32,2.45,2.45,0,0,0,.23-2.46c-1.17-1.38-1.79-1.59-2.85-.83s-2.06,1.62-3.09,2.44l-0.25-.27c1.12-1,2.2-2,3.35-3,1.75-1.46,1.43-3.79-.46-4.6-0.77,1.38-1.51,2.75-2.29,4.09-0.48.81-1.09,1.55-1.56,2.37a7.31,7.31,0,0,0-.87,6.22c0.68,2.07,1.88,3.64,4,4.12a5.59,5.59,0,0,0,6-2.26c2.5-3.21,2.13-6.61.66-10.06-0.75-1.77-1.71-3.46-2.5-5.22a7.07,7.07,0,0,1-.24-5.52,3.08,3.08,0,0,1,4.24-1.79,1.67,1.67,0,0,1,.81,1.12,1.32,1.32,0,0,1-.64,1.11,1.44,1.44,0,0,1-1.17-.53,0.94,0.94,0,0,0-1.72.1,3.09,3.09,0,0,0-.37,2,1.45,1.45,0,0,0,1.91,1,35.07,35.07,0,0,0,3.37-1.33A14,14,0,0,1,165,79.88c-0.62.32-1.4,0.36-2,.74a2.65,2.65,0,0,0-1.12,1.45,2,2,0,0,0,.65,1.47,1.79,1.79,0,0,0,2.74,0c1-1,1.9-2.08,2.91-3.2a3,3,0,0,1-.26.58c-1,1.29-2,2.61-3.08,3.86A3.22,3.22,0,0,0,165.86,89.94Zm0.67-25.14A19.16,19.16,0,0,0,164,63.32a2.41,2.41,0,0,0-2.79,1.23,2.3,2.3,0,0,0,1.06,2.54c0.49,0.3.93,0.54,1.25-.33,0.42-1.15,1.31-1.2,2-.19a1.53,1.53,0,0,1-1.17,2.37c-1.86.37-4.22-1.36-4.18-3.25a13.61,13.61,0,0,1,.7-4.13c0.68-2,1.71-3.81,2.44-5.76a10,10,0,0,0-.59-9.1,5.58,5.58,0,0,0-6.14-2.45c-3.61,1.27-6,6.08-3.3,9.65a67.81,67.81,0,0,1,3.54,5.85,6.6,6.6,0,0,0,.47.61c2.42-1.62,2.35-3.21,0-4.61A29.81,29.81,0,0,1,153.94,53l0.33-.38a18,18,0,0,0,1.68,1.55,11.08,11.08,0,0,0,2.32,1.35A2.3,2.3,0,0,0,160.76,54c0.09-1.82-.16-2.09-2-2.24a4.2,4.2,0,0,1-1.4-.21,20.82,20.82,0,0,1-2.05-1.23l0.23-.35a11,11,0,0,0,1.4.76,5,5,0,0,0,1.7.42,1.57,1.57,0,0,0,1.59-1.6,3.12,3.12,0,0,0-.81-2c-0.68-.72-1,0.2-1.46.58a1.44,1.44,0,0,1-2.08-.35,1,1,0,0,1,.48-1.58,3,3,0,0,1,1.76-.41A4,4,0,0,1,161.53,49a9.5,9.5,0,0,1-.43,6.37c-0.67,1.51-1.38,3-2,4.56a11,11,0,0,0-.94,6.1c0.67,3.41,3,5.19,6.31,4.8a5.75,5.75,0,0,0,5.21-6.18,11.53,11.53,0,0,0-1.58-5.75A10.15,10.15,0,0,1,166.41,54a1.37,1.37,0,0,0-.18-0.42,3,3,0,0,0-1.76,4.3,32,32,0,0,0,1.94,2.68c0.41,0.57.78,1.17,1.16,1.76A30,30,0,0,1,165,59.83a1.52,1.52,0,0,0-1.95-.16,1.47,1.47,0,0,0-.73,1.9,2,2,0,0,0,1.22,1A4.49,4.49,0,0,1,166.52,64.8ZM86.75,53.89c-0.85,1.72-1.71,3.35-2.47,5a21.58,21.58,0,0,0-1.36,3.63c-0.55,2.22-.51,4.4,1.07,6.28A5.92,5.92,0,0,0,94.43,65c0.14-2.93-.91-5.55-1.94-8.21A20,20,0,0,1,91,51.07c-0.13-2,.41-4.12,2.62-5.16,1.53-.72,3.28-0.25,3.42,1a1.76,1.76,0,0,1-.75,1.36c-0.56.35-1,0-1.2-.7A4,4,0,0,0,94.79,47c-1.55.39-2.22,1.28-2,2.59,0.17,1.06,1,1.6,2.48,1.32a13.28,13.28,0,0,0,2.63-1.08c-0.63,1.44-2,1.67-3.45,1.8-1.82.16-2.14,0.44-2.57,2.27,1.85,1.45,2.8,1.48,4.63.07a10.42,10.42,0,0,0,1.44-1.38A18.49,18.49,0,0,0,99,51a7.34,7.34,0,0,1-3.53,4.24,2.61,2.61,0,0,0-.13,4.51c1.18-1.81,2.37-3.6,3.53-5.41a15.15,15.15,0,0,0,1.27-2.26c1-2.43,0-6-2.07-7.34a6.18,6.18,0,0,0-7.32.93c-2.27,2.28-2.53,5.19-1.86,8.06,0.56,2.39,1.83,4.6,2.58,7a14.77,14.77,0,0,1,.75,4.61,3.39,3.39,0,0,1-4.1,3.34,1.73,1.73,0,0,1-1.1-1,1.37,1.37,0,0,1,.52-1.23,2,2,0,0,1,2.2.65A3,3,0,0,0,90.63,66a4,4,0,0,0-.26-2.29c-0.19-.32-1.3-0.31-1.9-0.13a11.26,11.26,0,0,0-2.23,1.31,5,5,0,0,1,3.28-2.22A1.77,1.77,0,0,0,90.91,61c0.13-1.13-.71-1.38-1.38-1.8a1.46,1.46,0,0,0-1.93.34c-0.81.8-1.57,1.65-2.46,2.6a3.28,3.28,0,0,1,.28-0.86c0.77-1,1.55-2.08,2.38-3.07A2.73,2.73,0,0,0,86.75,53.89ZM135.41,113l-0.23-.29c3.86-2.76,4.19-3.59,2.48-6.23-1.82.1-2.72,1-3.06,2.83a5.92,5.92,0,0,1-1.46,2.35,3.61,3.61,0,0,1-1.31.62l-0.17-.31a3.84,3.84,0,0,0,2.55-3.13,1.92,1.92,0,0,0-1.17-2.21,2.86,2.86,0,0,0-2,.44c-0.55.31-.93,0.89,0,1.4a1.53,1.53,0,0,1,.56,1.16,1.18,1.18,0,0,1-.73.77,1.35,1.35,0,0,1-1.82-1.15,2.85,2.85,0,0,1,1.23-2.88c2.16-1.56,4.52-1.18,6.79-.49a45.45,45.45,0,0,1,5.35,2.21,12,12,0,0,0,7,.91,6.1,6.1,0,0,0,5.21-5.86,5.69,5.69,0,0,0-4.55-5.69c-2.78-.64-5.11.41-7.3,2-1.6,1.13-3.1,2.43-5.25,2.58a2.9,2.9,0,0,0,2.53,2,2,2,0,0,0,2.07-1.07,9.91,9.91,0,0,1,1.45-1.71c0.93-.77,2-1.41,2.94-2.11l0.23,0.34a5.09,5.09,0,0,0-1,.64,37.4,37.4,0,0,0-2.82,3.13,1.56,1.56,0,0,0-.05,1.47c0.63,0.47.89,1.53,2,1.28,1.47-.32,1.72-0.52,1.8-2.1a3.85,3.85,0,0,1,2.42-3.67c-0.5.61-1,1.13-1.38,1.71a2.29,2.29,0,0,0-.19,2.66,1.93,1.93,0,0,0,2.61.45,1.28,1.28,0,0,0,.27-2.19,1,1,0,0,1,.06-1.65,1.21,1.21,0,0,1,1.83.42c1,1.33.48,3.25-1.13,4.41a7,7,0,0,1-6,1,52.17,52.17,0,0,1-6.44-2.26,14.29,14.29,0,0,0-5.86-1.19c-3.14.13-5.08,1.67-5.78,4.72a5.43,5.43,0,0,0,4.69,6.36,11.66,11.66,0,0,0,5.53-1c2.31-1,4.55-2.35,7.25-2.24-1.09-2.79-3.61-3.37-5.62-1.41a14.94,14.94,0,0,1-1.07,1.11C137.16,111.74,136.28,112.36,135.41,113ZM101.77,40.35c0.18,0.11.37,0.24,0.58,0.36a1.07,1.07,0,0,1,.34,1.72,1.13,1.13,0,0,1-1.77.13c-1.12-.82-1.2-2.7-0.15-4.05a5.11,5.11,0,0,1,5.5-1.91A62,62,0,0,1,113.42,39c2.38,0.89,4.74,1.85,7.34,1.24a6,6,0,0,0,4.61-4,4.83,4.83,0,0,0-1.23-5.15,6.4,6.4,0,0,0-6.2-1.84c-3,.78-6,2-8.93,3a1.09,1.09,0,0,0-.3,1,2.77,2.77,0,0,0,4.21.93c0.89-.71,1.67-1.57,2.54-2.31a13.24,13.24,0,0,1,1.38-.93c-0.9,1.17-1.87,2.2-2.73,3.32a1.31,1.31,0,0,0,0,1.22,2.37,2.37,0,0,0,1.35,1,2.07,2.07,0,0,0,2.44-1.69,9.8,9.8,0,0,1,1.33-2.22,19,19,0,0,1-.88,2.51,1.5,1.5,0,0,0,1,1.91,2.81,2.81,0,0,0,2.7-.77c0.61-.84-0.31-1-0.6-1.46a3.16,3.16,0,0,1-.06-1.43,2.74,2.74,0,0,1,1.45.09,2.46,2.46,0,0,1,.55,1.6,3,3,0,0,1-2.95,3,16.79,16.79,0,0,1-5-.58c-2.11-.59-4.1-1.62-6.2-2.29-3.15-1-6.21-.9-9,1.18a5,5,0,0,0-1.91,5.11,4.77,4.77,0,0,0,3.59,4.23,8.6,8.6,0,0,0,7-1.08c2-1.12,3.69-2.82,6.13-3.1-1.51-2.46-3.49-2.58-5.17-.44-0.6.76-1.27,1.47-1.92,2.2a15,15,0,0,1,1.61-2.79,1.42,1.42,0,0,0-.31-2A2,2,0,0,0,107.9,38a1.62,1.62,0,0,0-1.63,1.44,8.83,8.83,0,0,1-.24,1.52,3.56,3.56,0,0,1-1.83,2.56,24.58,24.58,0,0,0,1.39-2.92,1.62,1.62,0,0,0-.42-1.4A2.18,2.18,0,0,0,101.77,40.35Zm43.22,3-0.23.16c-0.65-.9-1.27-1.82-2-2.69-1.5-1.88-3.89-1.51-4.89.83,2.37,0.28,4.06,1.8,5.9,3.1a10.11,10.11,0,0,0,3.44,1.72,5.63,5.63,0,0,0,5.88-2.2,5,5,0,0,0,.41-5.89,7,7,0,0,0-5.75-3.47,17.36,17.36,0,0,0-8.7,1.82,13.94,13.94,0,0,1-6.42,1.36c-2.33-.14-4-2.33-3.08-4.09a3.54,3.54,0,0,1,1.49-.82,4.63,4.63,0,0,1,.7,1.56A2.94,2.94,0,0,1,131,36a2.64,2.64,0,0,0,3.39.44c0.72-.64.6-1.91-0.3-3.11-0.23-.31-0.44-0.64-0.66-1a0.65,0.65,0,0,1,.64.22,29.1,29.1,0,0,1,1.38,2.57,1.81,1.81,0,0,0,1.91,1.05,1.68,1.68,0,0,0,1.86-1.31,2,2,0,0,0-.64-1.57,28.72,28.72,0,0,0-2.84-2.08c-0.25-.18-0.52-0.32-0.78-0.48a6.37,6.37,0,0,1,4.6,2.63,2.84,2.84,0,0,0,4.76-.5c-2.27-1-4.48-2.2-6.8-3.09a20.83,20.83,0,0,0-4.48-1c-2.59-.37-5.93,2.62-5.93,5.46A5.84,5.84,0,0,0,132.89,40a18,18,0,0,0,8-1.77,12.68,12.68,0,0,1,7.34-1.35c1.9,0.3,3.42,1.19,3.89,3.13a4.12,4.12,0,0,1-.42,2.66,2.18,2.18,0,0,1-1.85.53,1.59,1.59,0,0,1-1-1.25,3.53,3.53,0,0,1,1.25-1.33,2.72,2.72,0,0,1,.69-0.33c-0.54-1.39-1.62-2.17-2.56-1.9s-1.24,1.37-.91,2.75c0.12,0.52.29,1,.44,1.53l-0.46.08-0.49-3.27a2.45,2.45,0,0,0-.16-1c-0.83-.21-1.83-0.64-2.51-0.36-1.3.52-1.42,1.28-.79,2.49C143.88,41.57,144.46,42.44,145,43.34ZM82.35,68.64A8.81,8.81,0,0,0,82.57,75l3.94-3.3ZM97.82,43.56l-0.5-4.68A7,7,0,0,0,93,43.28Zm68.51,28,4.19,3.55V68.62Zm-40.09,39.51a14.69,14.69,0,0,1-1.3,2.24,17.79,17.79,0,0,1-2.12,1.85C125,115.64,127,116,129,115Zm-29-6.45c0-1.1,0-1.89,0-2.66s0.23-1.49.32-2.08l-4.63.44C93.66,102.39,95.4,103.38,97.24,104.66Zm26.47-75.73,2.67,3.63,2.73-3.89A6.27,6.27,0,0,0,123.71,28.93Zm35.58,14.22c-1.21-1.57-2.32-3.29-4.52-3.81v4.47Zm0.83,57.77-4.79-.29v4l0.31,0.24Zm-10.57-7a3.77,3.77,0,0,0-.77,1.45,2.86,2.86,0,0,0,.86,1,2.62,2.62,0,0,0,1-1A4,4,0,0,0,149.55,93.93ZM127.42,38.88a3.92,3.92,0,0,0-1.25-.95A4.35,4.35,0,0,0,125.06,39a2.5,2.5,0,0,0,1,.64A4,4,0,0,0,127.42,38.88Zm0.19,66.06a3.36,3.36,0,0,0-1.25-.82,2.29,2.29,0,0,0-.9.8,2.66,2.66,0,0,0,1,.92A3.08,3.08,0,0,0,127.61,104.93Zm-35-31.79a3.58,3.58,0,0,0,.78-1.41,1.63,1.63,0,0,0-1-.75,1.23,1.23,0,0,0-.58.78A4.66,4.66,0,0,0,92.63,73.14Zm10.88-24.82a3.12,3.12,0,0,0-1.27-.68,2.73,2.73,0,0,0-.89.89,2.22,2.22,0,0,0,.94.68A3.54,3.54,0,0,0,103.51,48.33ZM102,93.94a4.09,4.09,0,0,0-.8,1.27,1,1,0,0,0,.71.67,1.53,1.53,0,0,0,.93-0.79A3.35,3.35,0,0,0,102,93.94Zm48.93-45.36a3.68,3.68,0,0,0-1.35-.76,1.1,1.1,0,0,0-.71.84,1.13,1.13,0,0,0,.83.72A3.36,3.36,0,0,0,150.94,48.58Zm8.31,24.35,0.49-.27a1.92,1.92,0,0,0,.6-0.81,2.42,2.42,0,0,0-.79-0.78,2.37,2.37,0,0,0-.72.86A2.25,2.25,0,0,0,159.25,72.93Z" transform="translate(0 -26.83)"/><path class="cls-2" d="M126,116.78a44.71,44.71,0,0,1-28.19-9.85,42.69,42.69,0,0,1-11.65-13.8,43,43,0,0,1-4.78-13.69c-0.28-1.85-.43-3.7-0.58-5.48-0.06-.76-0.13-1.51-0.19-2.22,0.73-15.14,6.36-26.63,17.23-35.16a44.9,44.9,0,0,1,28.32-9.74h0.05a45,45,0,0,1,27.17,8.8A46.3,46.3,0,0,1,167.8,53.28,42.23,42.23,0,0,1,171.69,75a43.63,43.63,0,0,1-14.87,30.25,44.75,44.75,0,0,1-26.38,11.34C128.95,116.71,127.44,116.78,126,116.78Zm0.2-89.59h-0.05A44.54,44.54,0,0,0,98,36.86C87.26,45.31,81.67,56.72,80.94,71.72c0.07,0.69.13,1.43,0.19,2.2,0.15,1.78.3,3.62,0.58,5.46A42.65,42.65,0,0,0,86.46,93,42.34,42.34,0,0,0,98,106.64,45.82,45.82,0,0,0,156.58,105a43.29,43.29,0,0,0,14.75-30,41.89,41.89,0,0,0-3.86-21.53,45.94,45.94,0,0,0-14.34-17.51A44.62,44.62,0,0,0,126.18,27.19Zm-0.05,88.61h0a17.53,17.53,0,0,1-3.35-.43l-0.36-.07,0.28-.24c0.25-.22.5-0.41,0.74-0.61a9.14,9.14,0,0,0,1.36-1.23,7.75,7.75,0,0,0,.89-1.47c0.13-.25.25-0.5,0.39-0.75l0.14-.24,3.1,4.29-0.19.09A6.76,6.76,0,0,1,126.13,115.81Zm-2.91-.71a15.73,15.73,0,0,0,2.91.35,6.48,6.48,0,0,0,2.65-.52l-2.52-3.48-0.25.49a8,8,0,0,1-.93,1.54,9.5,9.5,0,0,1-1.41,1.28Zm-4.16,0a7.7,7.7,0,0,1-2.44-.41c-1.07-.35-2.12-0.81-3.13-1.25-0.66-.29-1.34-0.58-2-0.85-0.9-.35-1.8-0.66-2.76-1l-1.28-.44-0.18-.06,0.07-.17a3.54,3.54,0,0,1,3.26-2.08,2.87,2.87,0,0,1,1.81.6c0.41,0.33.81,0.69,1.19,1a18.46,18.46,0,0,0,1.58,1.34,5.17,5.17,0,0,0,1.53.73l-0.33-.24c-0.79-.57-1.6-1.16-2.35-1.81-1.29-1.11-1.34-1.9-.22-3.37a1.53,1.53,0,0,1,1.27-.67,3.66,3.66,0,0,1,1.11.24l0.06,0a2,2,0,0,1,1.06,1.41A4.12,4.12,0,0,0,118.9,111a7.76,7.76,0,0,1-.88-1.11,2.66,2.66,0,0,1-.3-2,2.24,2.24,0,0,1,.95-1.41,2.17,2.17,0,0,1,1.14-.3,2.39,2.39,0,0,1,2.05,1.06l0.06,0.1a1.11,1.11,0,0,1,.24.94,0.91,0.91,0,0,1-.69.46,0.77,0.77,0,0,0-.56.38,0.87,0.87,0,0,0,.09.74,0.92,0.92,0,0,0,1.33.52,2.11,2.11,0,0,0,1-2.61c-0.52-1.57-2.21-2.56-4.41-2.58h-0.09a12.66,12.66,0,0,0-6.16,2,14.16,14.16,0,0,1-8.48,2c-3.32-.32-6.09-2.91-6.31-5.9a5.61,5.61,0,0,1,3-5.58,5.77,5.77,0,0,1,6.13-.06l5.35,3.06,2.45,1.4-0.07.15a2.9,2.9,0,0,1-2.39,1.52,2.42,2.42,0,0,1-2.55-1l-0.23-.32a8.11,8.11,0,0,0-2.22-2.38l0,0c0.49,0.51.92,1,1.31,1.44,1.48,1.83,1.36,2.86-.48,4.42l-0.07.05H108a2.74,2.74,0,0,1-2.38-2.57,8.39,8.39,0,0,0-.76-2.06l-0.28-.61,0.16,0.47a8.87,8.87,0,0,1,.49,1.9,2.3,2.3,0,0,1-.61,1.9,1.18,1.18,0,0,1-.63.15,4.27,4.27,0,0,1-1.38-.31,2.73,2.73,0,0,1-.92-0.72c-0.11-.12-0.22-0.23-0.34-0.33l-0.11-.1,0.07-.13c0.11-.19.23-0.36,0.34-0.53a1.64,1.64,0,0,0,.4-0.82,2.92,2.92,0,0,0-.4-1.12l-0.16-.33-0.34.18a1.81,1.81,0,0,0-.83.6,3,3,0,0,0,.25,2.78,4.07,4.07,0,0,0,3,2.08,17.06,17.06,0,0,0,8.19-1.57,18.56,18.56,0,0,1,7.06-1.88,9.81,9.81,0,0,1,1.25.08,7,7,0,0,1,4.27,2.09,5.2,5.2,0,0,1,.7,6.33A6.86,6.86,0,0,1,119.06,115.11Zm-11.32-4.2,1.09,0.38c1,0.33,1.86.64,2.77,1,0.68,0.27,1.37.56,2,.85,1,0.44,2,.89,3.1,1.24a7.37,7.37,0,0,0,2.33.39,6.51,6.51,0,0,0,5.71-3.39,4.79,4.79,0,0,0-.64-5.91,6.63,6.63,0,0,0-4.06-2,9.59,9.59,0,0,0-1.2-.08,18.27,18.27,0,0,0-6.92,1.85,17.4,17.4,0,0,1-8.36,1.59,4.44,4.44,0,0,1-3.31-2.26,3.33,3.33,0,0,1-.26-3.12,2,2,0,0,1,1-.76c0.18-.09.34-0.17,0.49-0.26l0.18-.12,0.08,0.2c0.07,0.17.15,0.33,0.24,0.5a3.24,3.24,0,0,1,.43,1.26,1.85,1.85,0,0,1-.46,1c-0.08.12-.17,0.25-0.25,0.38l0.25,0.25a2.44,2.44,0,0,0,.79.63,3.93,3.93,0,0,0,1.25.28,0.82,0.82,0,0,0,.43-0.1,2,2,0,0,0,.44-1.56,8.61,8.61,0,0,0-.48-1.82c-0.09-.26-0.18-0.53-0.26-0.79l0-.15,0.61-.28,0.07,0.18c0.13,0.31.27,0.61,0.41,0.91a8.63,8.63,0,0,1,.79,2.15,2.39,2.39,0,0,0,2,2.26c1.64-1.4,1.71-2.2.37-3.86-0.38-.47-0.8-0.91-1.29-1.42l-0.75-.79L105.8,99l0.72,0.28a7,7,0,0,1,3.29,3l0.22,0.32a2.05,2.05,0,0,0,2.2.86,2.73,2.73,0,0,0,2-1.17L112.13,101c-1.81-1-3.59-2-5.36-3.06A5.41,5.41,0,0,0,101,98a5.27,5.27,0,0,0-2.81,5.25c0.2,2.82,2.83,5.27,6,5.57a13.76,13.76,0,0,0,8.27-2,13,13,0,0,1,6.33-2.06h0.09c2.36,0,4.18,1.11,4.75,2.83a2.48,2.48,0,0,1-1.15,3.05,1.28,1.28,0,0,1-1.8-.69,1.2,1.2,0,0,1-.1-1.05,1.11,1.11,0,0,1,.8-0.58,0.64,0.64,0,0,0,.45-0.25,0.9,0.9,0,0,0-.22-0.62l-0.06-.11a2,2,0,0,0-1.74-.88,1.81,1.81,0,0,0-.95.25,1.88,1.88,0,0,0-.79,1.19,2.3,2.3,0,0,0,.25,1.73,8.56,8.56,0,0,0,1,1.23l0.54,0.6,0.48,0.57-0.69-.28a4.24,4.24,0,0,1-2.68-3.58,1.71,1.71,0,0,0-.82-1.14l-0.06,0a3.39,3.39,0,0,0-1-.22,1.18,1.18,0,0,0-1,.52c-1,1.31-1,1.91.17,2.88,0.74,0.64,1.55,1.22,2.33,1.79l1.06,0.78,0.63,0.47-0.77-.15a6.31,6.31,0,0,1-2.54-1,18.53,18.53,0,0,1-1.61-1.36c-0.38-.35-0.77-0.7-1.18-1a2.5,2.5,0,0,0-1.59-.52A3.21,3.21,0,0,0,107.74,110.9Zm24.92,3.88-0.76,0a5.16,5.16,0,0,1-3.78-2.16,5.47,5.47,0,0,1-1.07-4.42c0.71-3.09,2.71-4.72,5.95-4.86a14.64,14.64,0,0,1,5.93,1.2l0.8,0.31a44.82,44.82,0,0,0,5.62,1.93,6.87,6.87,0,0,0,5.86-.92,3.63,3.63,0,0,0,1.53-2.32,2.39,2.39,0,0,0-.44-1.84,1.31,1.31,0,0,0-1-.61,1,1,0,0,0-.62.23,0.82,0.82,0,0,0-.36.55,1.17,1.17,0,0,0,.34.84,1.78,1.78,0,0,1,.53,1.33,1.73,1.73,0,0,1-.84,1.12,2.11,2.11,0,0,1-2.87-.51,2.45,2.45,0,0,1,.2-2.86c0.23-.33.48-0.64,0.75-1a3.71,3.71,0,0,0-1.46,3c-0.09,1.71-.42,1.94-1.94,2.27a1.79,1.79,0,0,1-.37,0,1.71,1.71,0,0,1-1.35-.85,2.79,2.79,0,0,0-.47-0.5,0.69,0.69,0,0,1-.22-0.47,1.94,1.94,0,0,1,.23-1.26,32.91,32.91,0,0,1,2.52-2.83l0.31-.32,0.17-.15-0.08.05c-0.69.47-1.4,1-2,1.49a7.68,7.68,0,0,0-1.18,1.37l-0.23.32a2.37,2.37,0,0,1-1.84,1.19,2,2,0,0,1-.4,0,3.1,3.1,0,0,1-2.67-2.11l-0.07-.22,0.23,0a8.64,8.64,0,0,0,4.53-2.1l0.63-.46a9.82,9.82,0,0,1,5.75-2.18,7.55,7.55,0,0,1,1.69.2,5.87,5.87,0,0,1,4.69,5.87,6.28,6.28,0,0,1-5.37,6,12.22,12.22,0,0,1-7.14-.92l-0.92-.42a35.83,35.83,0,0,0-4.4-1.79,11.61,11.61,0,0,0-3.31-.6,5.48,5.48,0,0,0-3.32,1.06,2.66,2.66,0,0,0-1.16,2.71,1.18,1.18,0,0,0,1.59,1,1.09,1.09,0,0,0,.61-0.59,1.38,1.38,0,0,0-.47-1,1.05,1.05,0,0,1-.7-0.84,1.07,1.07,0,0,1,.65-0.88,4,4,0,0,1,1.7-.53,1.34,1.34,0,0,1,.47.08,2.09,2.09,0,0,1,1.29,2.4A4,4,0,0,1,132,112l0.27-.09a1.74,1.74,0,0,0,.78-0.4l0.14-.17a5.25,5.25,0,0,0,1.28-2.1,3.18,3.18,0,0,1,3.23-3h0.1l0.06,0.09c1.75,2.71,1.43,3.63-2.38,6.36h0l0.63-.46c0.6-.44,1.23-0.89,1.82-1.36a5.18,5.18,0,0,0,.64-0.64c0.14-.15.27-0.31,0.42-0.45a3.79,3.79,0,0,1,2.63-1.21,3.69,3.69,0,0,1,3.28,2.68l0.1,0.26h-0.28c-2.26-.1-4.22.84-6.13,1.74l-1,.48A11.49,11.49,0,0,1,132.66,114.79Zm0.78-11.11H133c-3.1.13-4.94,1.63-5.61,4.58a5.1,5.1,0,0,0,1,4.13,4.81,4.81,0,0,0,3.52,2l0.74,0a11.16,11.16,0,0,0,4.7-1l1-.48a14,14,0,0,1,6-1.78h0a3.21,3.21,0,0,0-2.84-2.19,3.44,3.44,0,0,0-2.38,1.1c-0.14.14-.27,0.28-0.4,0.43a5.48,5.48,0,0,1-.68.68c-0.6.47-1.22,0.93-1.83,1.37l-0.77.56-0.14.1-0.45-.57,0.15-.11c3.74-2.67,4.08-3.42,2.49-5.9-1.6.12-2.46,0.95-2.79,2.68a5.49,5.49,0,0,1-1.36,2.26l-0.14.17a2,2,0,0,1-.95.51,4.41,4.41,0,0,0-.43.16l-0.15.07-0.34-.63,0.18-.08a3.65,3.65,0,0,0,2.44-3,1.73,1.73,0,0,0-1.06-2,2.65,2.65,0,0,0-1.87.43,0.77,0.77,0,0,0-.47.55,0.81,0.81,0,0,0,.51.53,1.7,1.7,0,0,1,.66,1.31,1.32,1.32,0,0,1-.85.94,1.68,1.68,0,0,1-.56.1,1.53,1.53,0,0,1-1.5-1.39,3,3,0,0,1,1.3-3.05,5.83,5.83,0,0,1,3.54-1.12,12,12,0,0,1,3.41.61,36,36,0,0,1,4.45,1.8l0.92,0.42a11.88,11.88,0,0,0,6.94.9,5.93,5.93,0,0,0,5.06-5.69,5.51,5.51,0,0,0-4.41-5.51,7.11,7.11,0,0,0-1.61-.19A9.49,9.49,0,0,0,143,99.56l-0.63.45a9.37,9.37,0,0,1-4.48,2.14,2.78,2.78,0,0,0,2.32,1.66,1.84,1.84,0,0,0,1.89-1l0.24-.31a8,8,0,0,1,1.24-1.43c0.66-.55,1.38-1,2.08-1.51l0.88-.61,0.15-.11,0.43,0.65-0.15.1-0.33.19a2.64,2.64,0,0,0-.61.42l-0.31.32a33.13,33.13,0,0,0-2.49,2.8,1.54,1.54,0,0,0-.09,1.22,3.09,3.09,0,0,1,.54.56,1.27,1.27,0,0,0,1.37.68c1.4-.3,1.59-0.43,1.66-1.93a4,4,0,0,1,2.52-3.83l0.69-.3-0.48.58-0.46.56c-0.33.39-.63,0.75-0.91,1.14a2.09,2.09,0,0,0-.18,2.47,1.62,1.62,0,0,0,1.4.69,1.65,1.65,0,0,0,1-.29,1.41,1.41,0,0,0,.69-0.88,1.46,1.46,0,0,0-.45-1.05,1.49,1.49,0,0,1-.42-1.11,1.16,1.16,0,0,1,.51-0.79,1.39,1.39,0,0,1,2.09.45,2.75,2.75,0,0,1,.51,2.11,4,4,0,0,1-1.68,2.56,7.22,7.22,0,0,1-6.15,1,44.71,44.71,0,0,1-5.67-1.95l-0.8-.31A14.81,14.81,0,0,0,133.44,103.68Zm13.09-4.34-0.36.25,0.23-.13,0.15-.09ZM126.46,106h-0.07a1.51,1.51,0,0,1-.79-0.65,3.86,3.86,0,0,0-.27-0.32l-0.13-.13,0.13-.13a3.63,3.63,0,0,0,.26-0.29,1.22,1.22,0,0,1,.76-0.56h0a1.54,1.54,0,0,1,.88.48c0.14,0.12.3,0.25,0.47,0.37l0.2,0.14-0.19.15c-0.17.14-.33,0.29-0.47,0.43A1.4,1.4,0,0,1,126.46,106Zm-0.76-1.1,0.18,0.22a1.33,1.33,0,0,0,.57.52h0a1.52,1.52,0,0,0,.55-0.42l0.32-.3-0.31-.25a1.4,1.4,0,0,0-.65-0.4v0a1.17,1.17,0,0,0-.49.43Zm29.94,0.23-0.5-.38v-4.32l5.41,0.32Zm-0.14-.56,0.12,0.09,4-3.61-4.17-.25v3.76ZM97.42,105l-0.28-.2-0.59-.4c-1.6-1.09-3.12-2.12-3.77-4l-0.08-.22,5.09-.48,0,0.23c0,0.17-.06.36-0.1,0.56a14.43,14.43,0,0,0-.22,1.51c0,0.51,0,1,0,1.66,0,0.3,0,.63,0,1V105Zm-4.22-4.49c0.65,1.63,2,2.54,3.55,3.6l0.31,0.21c0-.23,0-0.44,0-0.64,0-.62,0-1.16,0-1.69a15,15,0,0,1,.23-1.55l0.06-.32Zm33.58,2.65h-0.34a32.57,32.57,0,0,1-23-9.28,31.72,31.72,0,0,1-9-22.58,30,30,0,0,1,8.92-21.37,31.82,31.82,0,0,1,23.28-9.35A31.33,31.33,0,0,1,148.87,94,31,31,0,0,1,126.78,103.16ZM126,40.94a31.45,31.45,0,0,0-22.42,9.25A29.67,29.67,0,0,0,94.78,71.3c0,18.05,13.34,31.3,31.66,31.5h0.34a30.61,30.61,0,0,0,21.83-9.07,31,31,0,0,0-22-52.78H126Zm31.88,59.34a6.5,6.5,0,0,1-1.44-.17c-2-.46-3.34-1.84-4.13-4.24a7.44,7.44,0,0,1,.88-6.36c0.25-.43.53-0.84,0.81-1.24s0.52-.75.75-1.14c0.55-.94,1.09-1.92,1.62-2.87L157.06,83l0.08-.14L157.29,83A2.72,2.72,0,0,1,159,85.08a3.06,3.06,0,0,1-1.19,2.79c-0.8.67-1.58,1.39-2.34,2.08l-0.87.8v0l0.8-.64c0.7-.57,1.42-1.16,2.17-1.7a2,2,0,0,1,1.17-.47,2.87,2.87,0,0,1,1.92,1.33,2.41,2.41,0,0,1,.23,1.63,1.69,1.69,0,0,1-.51,1.1,2.51,2.51,0,0,1-1.09.3l-0.31,0-0.39.06-0.6.1c1.4,0.12,2.15.53,2.31,1.63a2.47,2.47,0,0,1-2.16,2.78L158,97l-0.06-.13,0-.09a1,1,0,0,1-.11-0.27l0-.14c-0.13-.68-0.26-1.05-0.85-1a1.5,1.5,0,0,0-1,.65,1.32,1.32,0,0,0,.65,1.7,2.44,2.44,0,0,0,1.21.32,3.07,3.07,0,0,0,2.14-.93c1.9-1.9,2.43-4.35,1.58-7.28a36,36,0,0,0-1.75-4.49l-0.52-1.19a10.7,10.7,0,0,1-.63-7.51,5.87,5.87,0,0,1,5.51-4.14,5.11,5.11,0,0,1,.71.05c2.36,0.34,5,2.69,5.11,5.33a10.65,10.65,0,0,1-.76,4.8c-0.75,1.67-1.45,3.33-2.18,5.08L166,90l-0.07.17-0.17-.07a3.29,3.29,0,0,1-1.92-2.27,3.7,3.7,0,0,1,.88-3.23c0.47-.55.93-1.11,1.38-1.68-0.22.23-.44,0.46-0.67,0.69a2,2,0,0,1-3,0,2.2,2.2,0,0,1-.7-1.63,2.85,2.85,0,0,1,1.2-1.56,4,4,0,0,1,1.12-.44,4.55,4.55,0,0,0,.88-0.31,4.69,4.69,0,0,0,.74-0.5,17.76,17.76,0,0,1-2.21.84,2.1,2.1,0,0,1-.56.08A1.54,1.54,0,0,1,161.36,79a3.22,3.22,0,0,1,.39-2.18,1.12,1.12,0,0,1,2-.12,1.48,1.48,0,0,0,.89.48h0.07a1.17,1.17,0,0,0,.52-0.92,1.5,1.5,0,0,0-.71-1A2.76,2.76,0,0,0,163.3,75a3,3,0,0,0-2.76,2,6.93,6.93,0,0,0,.23,5.39c0.35,0.79.75,1.58,1.13,2.34,0.47,0.94,1,1.91,1.37,2.89,1.76,4.13,1.54,7.38-.69,10.24A5.82,5.82,0,0,1,157.89,100.28Zm-0.6-16.91-0.59,1.07c-0.52.95-1.06,1.93-1.62,2.88-0.23.4-.5,0.79-0.76,1.16s-0.55.8-.79,1.21a7.09,7.09,0,0,0-.85,6.07c0.75,2.27,2,3.58,3.87,4a5.4,5.4,0,0,0,5.77-2.2c2.14-2.74,2.34-5.88.64-9.88-0.41-1-.9-1.94-1.37-2.87-0.38-.76-0.78-1.56-1.14-2.35a7.27,7.27,0,0,1-.24-5.66,3.34,3.34,0,0,1,3.1-2.22,3.12,3.12,0,0,1,1.4.33,1.83,1.83,0,0,1,.91,1.26,1.48,1.48,0,0,1-.76,1.3,1.65,1.65,0,0,1-1.36-.59,0.78,0.78,0,0,0-1.43.07,2.88,2.88,0,0,0-.35,1.92,1.18,1.18,0,0,0,1.22.89,1.72,1.72,0,0,0,.47-0.07,17.62,17.62,0,0,0,2.19-.83l1.16-.49,1.24-.5-1.06.81-0.63.5a7,7,0,0,1-1.17.84,4.9,4.9,0,0,1-.95.34,3.62,3.62,0,0,0-1,.39,2.5,2.5,0,0,0-1,1.33,1.88,1.88,0,0,0,.6,1.3,1.62,1.62,0,0,0,2.48-.05c0.69-.67,1.32-1.4,2-2.16l0.91-1,0.76-.84-0.46,1c0,0.08-.07.16-0.09,0.23a1.43,1.43,0,0,1-.19.39l-0.74.94c-0.76,1-1.54,2-2.35,2.92a3.34,3.34,0,0,0-.8,2.91,2.91,2.91,0,0,0,1.55,1.94l0.86-2c0.74-1.76,1.43-3.42,2.19-5.09a10.33,10.33,0,0,0,.73-4.64c-0.06-2.43-2.63-4.68-4.81-5a4.75,4.75,0,0,0-.66,0,5.58,5.58,0,0,0-5.17,3.88,10.37,10.37,0,0,0,.62,7.26L160,85.22a36.83,36.83,0,0,1,1.76,4.53c0.89,3.07.33,5.64-1.67,7.64a3.43,3.43,0,0,1-2.39,1,2.79,2.79,0,0,1-1.39-.36,1.68,1.68,0,0,1-.81-2.13,1.83,1.83,0,0,1,1.31-.89c1-.16,1.14.67,1.26,1.25l0,0.13a0.52,0.52,0,0,0,.06.15,2.1,2.1,0,0,0,1.75-2.34c-0.13-.93-0.66-1.37-3.31-1.37h-1.15l1.1-.35a12.92,12.92,0,0,1,2-.41l0.39-.06,0.32,0a2.28,2.28,0,0,0,.93-0.25,1.34,1.34,0,0,0,.35-0.85,2.14,2.14,0,0,0-.15-1.34c-0.73-.87-1.19-1.2-1.65-1.2a1.72,1.72,0,0,0-1,.4c-0.74.53-1.46,1.12-2.15,1.68l-0.93.75-0.13.11-0.48-.53,0.13-.12,1-.92c0.76-.7,1.55-1.42,2.35-2.1a2.71,2.71,0,0,0,1.06-2.47A2.34,2.34,0,0,0,157.29,83.37ZM94.38,99.45a6.21,6.21,0,0,1-2.71-.61c-2.31-1.13-3.93-5-3.22-7.7A70.79,70.79,0,0,1,91,83.65l0.22-.57c0.78-2,1.52-3.81.87-5.92-0.54-1.74-1.73-2.76-3.06-2.56a2.28,2.28,0,0,0-1.13.55,0.86,0.86,0,0,0-.32.62,1.08,1.08,0,0,0,.39.77,0.62,0.62,0,0,0,.42.21,1.15,1.15,0,0,0,.71-0.49c0.1-.12.19-0.24,0.28-0.36l0.21-.28,0.13,0.06c1.32,0.6,2,1.62,1.74,2.67a2.27,2.27,0,0,1-2,1.65,2.06,2.06,0,0,1,1.69,1.76A2,2,0,0,1,89.7,84l-0.32.18a1.35,1.35,0,0,1-.68.2h0a2,2,0,0,1-1.39-.83l-0.63-.7c-0.33-.37-0.67-0.75-1-1.13a1.58,1.58,0,0,0,.15.25c0.41,0.52.85,1,1.28,1.51l0.64,0.73a3.69,3.69,0,0,1,1,3.06,3.88,3.88,0,0,1-2.18,2.59l-0.18.1-0.07-.19c-0.36-.94-0.74-1.88-1.12-2.82a67.64,67.64,0,0,1-2.38-6.53c-0.9-3.13,1.58-7.08,4.16-7.86a6.55,6.55,0,0,1,1.89-.29c2.8,0,5,2,5.75,5.21a8.52,8.52,0,0,1-.68,5.63l-1.15,2.61q-0.66,1.51-1.33,3A7.93,7.93,0,0,0,91.08,94a3.6,3.6,0,0,0,3.73,2.93,2.49,2.49,0,0,0,1.48-.77,1.54,1.54,0,0,0,.1-1.36,1.35,1.35,0,0,0-1-.41l-0.18,0a1.6,1.6,0,0,0-.34.78c0,0.15-.08.29-0.12,0.42a0.63,0.63,0,0,0,0,.24c0,0.07,0,.14,0,0.22v0.15l-0.14,0a1.91,1.91,0,0,1-2.3-.91,2.47,2.47,0,0,1,.21-3.15,1.51,1.51,0,0,1,1.24-.67,7.4,7.4,0,0,1,2.23.58,4.51,4.51,0,0,0-2.46-.67,1.7,1.7,0,0,1-1.89-1.4,2.71,2.71,0,0,1,.39-1.66,1.58,1.58,0,0,1,1.38-.78,2.17,2.17,0,0,1,1,.24c0.51,0.25,1,.54,1.5.83l0.74,0.42a14.9,14.9,0,0,0-1.5-1.18,3,3,0,0,1-1.6-2.31,3.09,3.09,0,0,1,1.68-2.4l0.16-.11,0.1,0.16c0.46,0.79,1,1.59,1.43,2.35a44.44,44.44,0,0,1,3.12,5.62A5.86,5.86,0,0,1,98.42,98,6.4,6.4,0,0,1,94.38,99.45Zm-5-25.23c1.36,0,2.54,1.09,3.08,2.84,0.69,2.24-.11,4.23-0.88,6.16l-0.22.56a70.51,70.51,0,0,0-2.53,7.44c-0.66,2.5.89,6.25,3,7.29a5.85,5.85,0,0,0,2.55.57,6,6,0,0,0,3.81-1.32,5.5,5.5,0,0,0,1.55-6.37,44.2,44.2,0,0,0-3.1-5.57c-0.45-.72-0.9-1.45-1.34-2.19a2.13,2.13,0,0,0,.08,4,17.83,17.83,0,0,1,1.86,1.48L98,89.81l1,0.84-1.2-.53A22.19,22.19,0,0,1,95.77,89c-0.5-.29-1-0.57-1.48-0.82a1.81,1.81,0,0,0-.8-0.2,1.22,1.22,0,0,0-1.08.61A2.37,2.37,0,0,0,92.07,90c0.09,0.71.54,1,1.55,1.08A4.18,4.18,0,0,1,97,92.5L97.39,93l-0.63-.24a10.53,10.53,0,0,0-2.93-.87,1.15,1.15,0,0,0-1,.54,2.12,2.12,0,0,0-.18,2.73,1.53,1.53,0,0,0,1.76.78v0a0.85,0.85,0,0,1,0-.41c0-.12.08-0.26,0.12-0.4a1.38,1.38,0,0,1,.57-1,1.64,1.64,0,0,1,1.58.55,1.88,1.88,0,0,1-.13,1.75,2.86,2.86,0,0,1-1.72.9,3.07,3.07,0,0,1-.43,0,4.07,4.07,0,0,1-3.69-3.22,8.27,8.27,0,0,1,.4-5.56q0.67-1.5,1.33-3l1.15-2.61a8.18,8.18,0,0,0,.66-5.4c-0.71-3-2.78-4.93-5.4-4.93a6.18,6.18,0,0,0-1.79.28c-2.38.72-4.76,4.52-3.92,7.42a67.24,67.24,0,0,0,2.37,6.49c0.35,0.88.71,1.75,1,2.63a3.44,3.44,0,0,0,1.82-2.24,3.34,3.34,0,0,0-1-2.76l-0.63-.73c-0.43-.49-0.88-1-1.29-1.53a3.08,3.08,0,0,1-.4-0.79c0-.12-0.09-0.24-0.15-0.35l-0.37-.81,0.66,0.6a23.18,23.18,0,0,1,1.69,1.77l0.62,0.69A1.72,1.72,0,0,0,88.7,84h0a1,1,0,0,0,.5-0.15l0.32-.18c0.73-.4,1.36-0.74,1.21-1.86S90,80.6,89.09,80.27l-0.41-.15-0.6-.23,0.63-.12c1.29-.24,2.15-0.47,2.4-1.5a2,2,0,0,0-1.41-2.2l0,0c-0.09.13-.19,0.26-0.3,0.39a1.42,1.42,0,0,1-1,.62,1,1,0,0,1-.67-0.31,1.42,1.42,0,0,1-.5-1,1.22,1.22,0,0,1,.44-0.89A2.66,2.66,0,0,1,89,74.25Zm60.28,22.46-0.13-.14c-0.09-.1-0.2-0.2-0.3-0.29a1.61,1.61,0,0,1-.61-0.83,1.44,1.44,0,0,1,.4-1c0.12-.18.26-0.38,0.39-0.61l0.13-.24,0.17,0.22c0.17,0.22.35,0.42,0.5,0.59a1.64,1.64,0,0,1,.58,1,1.39,1.39,0,0,1-.66.85,4.41,4.41,0,0,0-.35.3Zm-0.06-2.43-0.27.41a0.73,0.73,0,0,0,.15,1.32l0.2,0.19,0.24-.2a1.35,1.35,0,0,0,.53-0.58,1.57,1.57,0,0,0-.49-0.73ZM101.9,96.06a1.17,1.17,0,0,1-.65-0.42,0.63,0.63,0,0,1-.21-0.46,1.89,1.89,0,0,1,.47-0.86c0.11-.14.23-0.3,0.36-0.49l0.14-.21,0.15,0.2c0.15,0.19.3,0.37,0.44,0.52a1,1,0,0,1,.43.81,1.7,1.7,0,0,1-1,.9H101.9ZM102,94.24l-0.23.3a1.66,1.66,0,0,0-.4.68,1.17,1.17,0,0,0,.51.47,1.37,1.37,0,0,0,.78-0.68,3.63,3.63,0,0,0-.36-0.44ZM170.7,75.53L166,71.58l4.67-3.31v7.25Zm-4.08-3.92,3.72,3.15V69ZM82.51,75.26l-0.1-.21a8.84,8.84,0,0,1-.24-6.46l0.07-.25,4.56,3.32Zm-0.06-6.32a8.47,8.47,0,0,0,.18,5.75l3.59-3ZM92.64,73.5l-0.16-.26c-0.13-.23-0.26-0.41-0.37-0.58a2,2,0,0,1-.43-0.89A1.25,1.25,0,0,1,92.05,71a0.52,0.52,0,0,1,.37-0.25H92.5a1.71,1.71,0,0,1,1.09.88,1.3,1.3,0,0,1-.39.92c-0.12.18-.27,0.38-0.41,0.62Zm-0.2-2.33a1.31,1.31,0,0,0-.4.57,1.78,1.78,0,0,0,.37.72l0.23,0.34,0.27-.4a1.38,1.38,0,0,0,.34-0.64A1.38,1.38,0,0,0,92.44,71.17Zm66.73,2L159.09,73c0-.1-0.11-0.2-0.17-0.3a1.27,1.27,0,0,1-.27-0.81,1.37,1.37,0,0,1,.52-0.71c0.09-.08.18-0.16,0.25-0.24l0.12-.13,0.13,0.12,0.26,0.21a1.44,1.44,0,0,1,.58.65,0.87,0.87,0,0,1-.4.72c-0.08.09-.17,0.17-0.23,0.25l-0.05,0Zm0.39-1.87-0.15.14a1.18,1.18,0,0,0-.4.5,1.11,1.11,0,0,0,.23.57l0.1,0.16,0.3-.17,0.23-.25a1.54,1.54,0,0,0,.31-0.38,1.3,1.3,0,0,0-.45-0.45Zm-71-.24a6.24,6.24,0,0,1-4.74-2.13c-1.41-1.67-1.77-3.78-1.11-6.44a22,22,0,0,1,1.37-3.66c0.53-1.17,1.1-2.3,1.7-3.49l0.77-1.54,0.08-.15,0.16,0.07a3,3,0,0,1,1.72,2,2.92,2.92,0,0,1-.61,2.55c-0.84,1-1.63,2.08-2.37,3.07l-0.05.09,0.29-.31c0.57-.62,1.11-1.2,1.68-1.76A1.63,1.63,0,0,1,89.62,59l0.31,0.18A1.7,1.7,0,0,1,91.09,61a2,2,0,0,1-1.51,1.83A5.75,5.75,0,0,0,87,64.16a5.37,5.37,0,0,1,1.42-.76,3.72,3.72,0,0,1,1-.13,1.33,1.33,0,0,1,1.09.35,4.18,4.18,0,0,1,.28,2.4,1.52,1.52,0,0,1-.57.84,4.45,4.45,0,0,0-.33.34l-0.11.14-0.14-.11L89.36,67A1,1,0,0,0,89,66.68l-0.15,0a2.23,2.23,0,0,0-1.2-.06,1.21,1.21,0,0,0-.43,1,1.57,1.57,0,0,0,1,.88,3.44,3.44,0,0,0,.68.07,3.22,3.22,0,0,0,3.21-3.23,14.47,14.47,0,0,0-.75-4.55c-0.32-1-.74-2-1.14-2.94a25.35,25.35,0,0,1-1.44-4c-0.8-3.39-.16-6.15,1.91-8.23a6.48,6.48,0,0,1,4.52-1.79,5.49,5.49,0,0,1,3,.84c2.14,1.4,3.18,5.07,2.14,7.56A15.54,15.54,0,0,1,99,54.48c-0.83,1.3-1.69,2.6-2.52,3.87L95.41,60l-0.15-.09a2.78,2.78,0,0,1-1.32-2.4,2.86,2.86,0,0,1,1.45-2.41,7.77,7.77,0,0,0,2.69-2.48h0a10.46,10.46,0,0,1-1.47,1.41,4,4,0,0,1-2.38,1.08A4.09,4.09,0,0,1,91.75,54l-0.07-.06c0.28,1,.64,1.95,1,2.83L92.75,57c1,2.54,2,5.16,1.86,8a6.34,6.34,0,0,1-4.09,5.7A6.11,6.11,0,0,1,88.59,71.06ZM86.83,54.13l-0.7,1.38C85.54,56.7,85,57.82,84.44,59a21.6,21.6,0,0,0-1.35,3.6c-0.64,2.57-.31,4.52,1,6.12a5.87,5.87,0,0,0,4.46,2,5.74,5.74,0,0,0,1.81-.29A6,6,0,0,0,94.25,65c0.14-2.8-.82-5.27-1.83-7.89l-0.09-.24a20.14,20.14,0,0,1-1.53-5.82c-0.16-2.58.78-4.42,2.73-5.34a3.68,3.68,0,0,1,1.55-.35,1.66,1.66,0,0,1,1.3,3,1,1,0,0,1-1.47-.8,2,2,0,0,0-.17-0.4l0-.06c-1.34.38-1.93,1.17-1.73,2.34,0.17,1,1,1.42,2.27,1.18A7.32,7.32,0,0,0,97,50c0.26-.13.53-0.26,0.78-0.37l0.42-.18-0.18.41c-0.66,1.52-2.08,1.77-3.6,1.91-1.7.15-2,.38-2.39,2a3.66,3.66,0,0,0,2.16,1,3.71,3.71,0,0,0,2.16-1,10.15,10.15,0,0,0,1.42-1.36,10.44,10.44,0,0,0,.75-1l0.32-.47L99.52,50,99.19,51.1a7.49,7.49,0,0,1-3.61,4.34,2.47,2.47,0,0,0-1.28,2.11,2.41,2.41,0,0,0,1,2l0.91-1.39c0.83-1.26,1.69-2.57,2.52-3.86A14.79,14.79,0,0,0,100,52a6.37,6.37,0,0,0-2-7.12,5.14,5.14,0,0,0-2.83-.78,6.11,6.11,0,0,0-4.27,1.68c-2,2-2.58,4.63-1.81,7.89a25.08,25.08,0,0,0,1.43,4c0.41,1,.83,2,1.15,3a14.78,14.78,0,0,1,.76,4.67,3.58,3.58,0,0,1-3.57,3.58,3.67,3.67,0,0,1-.75-0.08,1.91,1.91,0,0,1-1.23-1.12,1.52,1.52,0,0,1,.61-1.45,2.45,2.45,0,0,1,1.44,0l0.15,0a1.19,1.19,0,0,1,.54.37l0.14,0.13L90,66.59A1.35,1.35,0,0,0,90.45,66a3.9,3.9,0,0,0-.23-2.18,1.12,1.12,0,0,0-.78-0.17,3.31,3.31,0,0,0-.9.12,5.49,5.49,0,0,0-1.42.79c-0.24.16-.49,0.34-0.77,0.51l-0.6.37,0.35-.61a5.18,5.18,0,0,1,3.38-2.3A1.6,1.6,0,0,0,90.73,61a1.36,1.36,0,0,0-1-1.44l-0.33-.19a1.27,1.27,0,0,0-1.71.31c-0.56.55-1.1,1.14-1.67,1.75l-0.79.85-0.53.57L85,62.06c0-.12.07-0.24,0.09-0.34a1.48,1.48,0,0,1,.21-0.57c0.74-1,1.53-2.05,2.38-3.08A2.55,2.55,0,0,0,86.83,54.13Zm8.23-8.38a3.32,3.32,0,0,0-1.4.32c-1.83.86-2.67,2.53-2.52,5a13.71,13.71,0,0,0,.52,2.85l0-.09c0.45-1.9.83-2.24,2.73-2.41,1.23-.11,2.38-0.3,3-1.23l-0.27.13a7.54,7.54,0,0,1-1.9.73c-1.52.29-2.5-.26-2.7-1.47-0.16-1,.08-2.27,2.14-2.79l0.15,0L95,46.88,95,47.07a2.33,2.33,0,0,1,.2.47c0.15,0.59.52,0.84,0.93,0.59a1.6,1.6,0,0,0,.66-1.19A1.6,1.6,0,0,0,95.06,45.75ZM163.63,71c-2.93,0-5-1.82-5.6-5a11.16,11.16,0,0,1,.95-6.2c0.46-1.24,1-2.48,1.55-3.67l0.41-.9a9.37,9.37,0,0,0,.42-6.25,3.76,3.76,0,0,0-3.3-3,2.8,2.8,0,0,0-1.65.39,1.16,1.16,0,0,0-.59.67,0.8,0.8,0,0,0,.17.65,1.35,1.35,0,0,0,1.1.58A1.07,1.07,0,0,0,157.8,48a2.6,2.6,0,0,0,.29-0.32,1.17,1.17,0,0,1,.81-0.58,0.86,0.86,0,0,1,.61.33,3.27,3.27,0,0,1,.86,2.15,1.75,1.75,0,0,1-1.75,1.78,5.23,5.23,0,0,1-1.78-.43,6.28,6.28,0,0,1-1-.53l-0.27-.16,0,0.06L156,50.59a12.31,12.31,0,0,0,1.44.84,2.86,2.86,0,0,0,1,.17l0.32,0c2,0.16,2.28.52,2.19,2.43,0,0.8-1.4,1.69-2.3,1.69a1.16,1.16,0,0,1-.44-0.08,11,11,0,0,1-2.36-1.37,10.37,10.37,0,0,1-1.2-1.08l-0.36-.36-0.08.1c0.3,0.26.6,0.52,0.89,0.79a16,16,0,0,0,2.32,1.84c1.21,0.73,1.83,1.52,1.85,2.35s-0.61,1.72-1.87,2.56l-0.14.1-0.1-.13L157,60.28a3.86,3.86,0,0,1-.33-0.45c-0.38-.63-0.74-1.28-1.1-1.91A35.72,35.72,0,0,0,153.13,54a5.87,5.87,0,0,1-.91-5.35,7.06,7.06,0,0,1,4.28-4.57,4.31,4.31,0,0,1,1.43-.23,6,6,0,0,1,4.93,2.76,10.18,10.18,0,0,1,.6,9.26c-0.34.89-.74,1.77-1.13,2.62-0.47,1-.95,2.06-1.31,3.13a13.53,13.53,0,0,0-.69,4.07,2.75,2.75,0,0,0,.88,1.94,3.66,3.66,0,0,0,3.09,1.13,1.6,1.6,0,0,0,1.21-.91,1.21,1.21,0,0,0-.15-1.18,1.24,1.24,0,0,0-.91-0.64,1,1,0,0,0-.79.79,0.86,0.86,0,0,1-.75.73,1.54,1.54,0,0,1-.75-0.3A2.48,2.48,0,0,1,161,64.48,2.67,2.67,0,0,1,163.36,63a1.86,1.86,0,0,1,.69.13,10.36,10.36,0,0,1,1.78,1L166,64.24a4.87,4.87,0,0,0-2.48-1.53,2.11,2.11,0,0,1-1.33-1.09A1.63,1.63,0,0,1,163,59.5a1.68,1.68,0,0,1,2.16.2l0.7,0.73c0.27,0.28.54,0.57,0.82,0.86l-0.4-.59c-0.23-.32-0.47-0.63-0.71-0.94A14.75,14.75,0,0,1,164.31,58a3,3,0,0,1-.21-2.59,3.37,3.37,0,0,1,2.07-2l0.16-.06,0.07,0.15,0.06,0.12a0.9,0.9,0,0,1,.13.37,9.92,9.92,0,0,0,1.7,4.75,11.58,11.58,0,0,1,1.61,5.83A5.92,5.92,0,0,1,164.53,71,7.9,7.9,0,0,1,163.63,71Zm-5.8-25.41,0.28,0a4.14,4.14,0,0,1,3.6,3.28,9.71,9.71,0,0,1-.44,6.49l-0.41.91c-0.54,1.19-1.09,2.41-1.55,3.64a10.87,10.87,0,0,0-.93,6c0.66,3.34,2.87,5,6.11,4.65a5.57,5.57,0,0,0,5.05-6A11.21,11.21,0,0,0,168,59,10.24,10.24,0,0,1,166.23,54a0.6,0.6,0,0,0-.08-0.21,3,3,0,0,0-1.71,1.7,2.66,2.66,0,0,0,.18,2.29,14.26,14.26,0,0,0,1.21,1.72c0.24,0.31.49,0.63,0.72,1s0.55,0.82.81,1.22l0.35,0.54,0.63,1-0.89-.72a18.38,18.38,0,0,1-1.88-1.82L164.88,60a1.32,1.32,0,0,0-1.74-.13,1.29,1.29,0,0,0-.64,1.69,1.85,1.85,0,0,0,1.1.85,4.71,4.71,0,0,1,3.08,2.36l0.26,0.54-0.51-.3-0.8-.51a10,10,0,0,0-1.71-1,1.5,1.5,0,0,0-.55-0.1,2.31,2.31,0,0,0-2,1.23,2.13,2.13,0,0,0,1,2.32,1.32,1.32,0,0,0,.57.25c0.06,0,.24,0,0.42-0.49a1.25,1.25,0,0,1,1.12-1A1.78,1.78,0,0,1,165.84,68a2,2,0,0,1-1.48,1.13,4,4,0,0,1-3.42-1.23,3.1,3.1,0,0,1-1-2.2,13.77,13.77,0,0,1,.71-4.18c0.37-1.08.86-2.14,1.33-3.16,0.39-.85.79-1.72,1.12-2.6a9.85,9.85,0,0,0-.57-8.94,5.64,5.64,0,0,0-4.62-2.59,3.92,3.92,0,0,0-1.31.21,6.7,6.7,0,0,0-4.06,4.34,5.52,5.52,0,0,0,.85,5,36.1,36.1,0,0,1,2.46,4c0.35,0.63.72,1.27,1.09,1.9a3.3,3.3,0,0,0,.3.4l0,0.06c1.06-.74,1.59-1.47,1.58-2.16s-0.58-1.39-1.68-2.05A16.26,16.26,0,0,1,154.85,54c-0.34-.3-0.68-0.61-1-0.9L153.68,53l0.57-.66,0.13,0.13,0.5,0.49a10.17,10.17,0,0,0,1.16,1,10.73,10.73,0,0,0,2.28,1.33,0.84,0.84,0,0,0,.31.05A2.26,2.26,0,0,0,160.58,54c0.08-1.72-.09-1.91-1.86-2.06l-0.31,0a3.1,3.1,0,0,1-1.15-.21,12.49,12.49,0,0,1-1.48-.86l-0.59-.38-0.16-.1,0.42-.65,0.15,0.08L156,50.11a6.06,6.06,0,0,0,.95.5,4.94,4.94,0,0,0,1.63.4h0A1.39,1.39,0,0,0,160,49.58a2.92,2.92,0,0,0-.76-1.89,0.54,0.54,0,0,0-.35-0.21,1,1,0,0,0-.53.44,2.74,2.74,0,0,1-.33.36,1.45,1.45,0,0,1-1,.35,1.71,1.71,0,0,1-1.39-.73,1.15,1.15,0,0,1-.23-0.94,1.46,1.46,0,0,1,.77-0.91A3.43,3.43,0,0,1,157.83,45.61Zm-8.09,3.95h0a1.29,1.29,0,0,1-1-.89,1.25,1.25,0,0,1,.88-1h0a1.66,1.66,0,0,1,.86.42c0.16,0.11.34,0.24,0.55,0.37l0.24,0.14-0.23.16c-0.2.14-.37,0.28-0.52,0.4A1.39,1.39,0,0,1,149.74,49.56Zm-0.12-1.74,0,0.18a1,1,0,0,0-.54.65,1,1,0,0,0,.67.55h0a1.33,1.33,0,0,0,.57-0.35l0.33-.26-0.35-.24a1.52,1.52,0,0,0-.66-0.35V47.82ZM102.3,49.39a1.25,1.25,0,0,1-.78-0.47,3.59,3.59,0,0,0-.28-0.25l-0.16-.12,0.14-.14c0.08-.09.16-0.19,0.24-0.3a1.59,1.59,0,0,1,.73-0.64,1.19,1.19,0,0,1,.87.35c0.16,0.11.34,0.23,0.54,0.35l0.23,0.13-0.21.16c-0.18.14-.34,0.28-0.48,0.41a1.53,1.53,0,0,1-.84.51h0Zm-0.69-.88,0.16,0.15a1.17,1.17,0,0,0,.51.37,1.38,1.38,0,0,0,.63-0.42l0.3-.26-0.34-.23a1.35,1.35,0,0,0-.56-0.3,1.39,1.39,0,0,0-.54.51Zm47-1.72a6.27,6.27,0,0,1-1.38-.16,10.45,10.45,0,0,1-3.5-1.75l-0.88-.64a10.42,10.42,0,0,0-4.94-2.43l-0.24,0,0.09-.22a3.15,3.15,0,0,1,2.81-2.14,3.07,3.07,0,0,1,2.38,1.27c0.48,0.6.93,1.24,1.37,1.86-0.36-.59-0.73-1.2-1.06-1.82a2.14,2.14,0,0,1-.31-1.72,1.91,1.91,0,0,1,1.2-1,3.58,3.58,0,0,1,2.09.2l0.53,0.15C147,38.4,147,38.68,147,39.1c0,0.13,0,.26,0,0.36l0.05,0.34a1.71,1.71,0,0,1,1.14-1.58,1.53,1.53,0,0,1,.42-0.06A2.84,2.84,0,0,1,151,40.24l0.06,0.16-0.15.07-0.23.09a1.32,1.32,0,0,0-.41.21l-0.35.29a2.26,2.26,0,0,0-.84.95,0.79,0.79,0,0,0,.18.45,1.37,1.37,0,0,0,.64.58l0.28,0a1.85,1.85,0,0,0,1.38-.46,4,4,0,0,0,.4-2.53c-0.4-1.66-1.66-2.67-3.75-3A12.33,12.33,0,0,0,141,38.41a17.93,17.93,0,0,1-8.09,1.79A6,6,0,0,1,127,34.27c0-2.7,3-5.67,5.66-5.67a3.33,3.33,0,0,1,.48,0l0.33,0a19.28,19.28,0,0,1,4.18.91c1.64,0.62,3.25,1.4,4.8,2.14l2,1,0.16,0.08-0.08.16a2.93,2.93,0,0,1-2.68,1.67,3.06,3.06,0,0,1-2.38-1.13A6.45,6.45,0,0,0,135.83,31l0.06,0,0.77,0.53a18.84,18.84,0,0,1,2.1,1.57,2.19,2.19,0,0,1,.7,1.74,1.84,1.84,0,0,1-1.95,1.45H137.4a2,2,0,0,1-2.08-1.16c-0.13-.3-0.28-0.6-0.43-0.89a2,2,0,0,1-.34,2.23,2.08,2.08,0,0,1-1.4.49,3.33,3.33,0,0,1-2.23-.93l-0.11-.1,0.08-.13c0.09-.13.19-0.26,0.3-0.4a1.42,1.42,0,0,0,.41-0.73,2.4,2.4,0,0,0-.42-1L131,33.41l-0.39.16a1.67,1.67,0,0,0-.86.51,2.18,2.18,0,0,0,.1,2.13,3.5,3.5,0,0,0,2.84,1.69A13.47,13.47,0,0,0,139,36.56a19.06,19.06,0,0,1,7.57-1.89c0.41,0,.81,0,1.21.06a7.15,7.15,0,0,1,5.89,3.56,5.19,5.19,0,0,1-.43,6.09A5.85,5.85,0,0,1,148.59,46.79Zm-10.41-5.3A11.24,11.24,0,0,1,143,44l0.87,0.63a10.13,10.13,0,0,0,3.38,1.69,5.46,5.46,0,0,0,5.7-2.14,4.85,4.85,0,0,0,.4-5.69,6.81,6.81,0,0,0-5.61-3.38C147.39,35,147,35,146.6,35a18.72,18.72,0,0,0-7.43,1.86,13.82,13.82,0,0,1-6.5,1.37,3.87,3.87,0,0,1-3.13-1.87,2.56,2.56,0,0,1-.1-2.48,1.87,1.87,0,0,1,1.05-.68A5.3,5.3,0,0,0,131,33l0.16-.09,0.08,0.17c0.07,0.15.16,0.3,0.25,0.45a2.67,2.67,0,0,1,.46,1.17,1.6,1.6,0,0,1-.49,1l-0.19.24a2.94,2.94,0,0,0,1.87.73,1.72,1.72,0,0,0,1.16-.4c0.65-.57.51-1.75-0.32-2.86-0.16-.22-0.32-0.45-0.47-0.68l-0.38-.56,0.32,0a0.79,0.79,0,0,1,.81.31l0.25,0.44A22.78,22.78,0,0,1,135.66,35a1.63,1.63,0,0,0,1.76.95h0.08a1.48,1.48,0,0,0,1.59-1.17,1.86,1.86,0,0,0-.58-1.4,18.58,18.58,0,0,0-2.06-1.54l-0.77-.53c-0.17-.12-0.34-0.22-0.52-0.32l-0.25-.15-0.62-.38,0.73,0a6.51,6.51,0,0,1,4.73,2.69,2.7,2.7,0,0,0,2.11,1,2.59,2.59,0,0,0,2.27-1.31l-1.84-.88c-1.55-.74-3.15-1.51-4.77-2.13a19.05,19.05,0,0,0-4.1-.89l-0.33,0a3,3,0,0,0-.43,0c-2.47,0-5.3,2.83-5.3,5.31a5.68,5.68,0,0,0,5.55,5.57,17.62,17.62,0,0,0,7.93-1.75,12.68,12.68,0,0,1,7.44-1.37c2.24,0.35,3.6,1.45,4,3.26a4.35,4.35,0,0,1-.43,2.78,2.13,2.13,0,0,1-1.7.65l-0.34,0a1.65,1.65,0,0,1-.89-0.73,1,1,0,0,1-.23-0.74,2.46,2.46,0,0,1,1-1.14L150,40.5a1.58,1.58,0,0,1,.52-0.27l0.05,0c-0.51-1.16-1.47-1.86-2.27-1.63s-1.09,1.26-.79,2.53c0.08,0.35.19,0.69,0.29,1L148,42.63,148,42.82l-0.83.16-0.51-3.46c0-.11,0-0.25,0-0.39a3,3,0,0,0,0-.45l-0.49-.14a3.33,3.33,0,0,0-1.86-.21,1.58,1.58,0,0,0-1,.81,1.83,1.83,0,0,0,.29,1.43c0.33,0.63.71,1.25,1.08,1.85l0.5,0.83,0.08,0.15-0.52.36-0.1-.14-0.6-.84c-0.43-.61-0.88-1.25-1.36-1.84A2.52,2.52,0,0,0,138.17,41.5ZM147.42,42l0.08,0.53h0.08l-0.09-.3Zm-13.58-9.48c0.14,0.21.27,0.41,0.42,0.61l0-.08L134,32.64A0.22,0.22,0,0,0,133.83,32.55ZM104.15,46.22a7.8,7.8,0,0,1-2.31-.36,5,5,0,0,1-3.72-4.38,5.15,5.15,0,0,1,2-5.28c2.59-1.93,5.63-2.34,9.17-1.21,1,0.3,1.89.69,2.8,1.06a31.83,31.83,0,0,0,3.39,1.23,16.74,16.74,0,0,0,4.92.58A2.84,2.84,0,0,0,123.15,35a2.33,2.33,0,0,0-.49-1.47,1.45,1.45,0,0,0-.81-0.06l-0.34,0c0,0.1,0,.2,0,0.31a1.55,1.55,0,0,0,.06.85,1.37,1.37,0,0,0,.33.32,0.83,0.83,0,0,1,.26,1.34,3,3,0,0,1-2.23.95,1.82,1.82,0,0,1-.68-0.12,1.68,1.68,0,0,1-1.08-2.13,8.47,8.47,0,0,1,.38-1l0.19-.45a4.34,4.34,0,0,0-.67,1.25,2.24,2.24,0,0,1-2.63,1.82,2.5,2.5,0,0,1-1.48-1.11,1.48,1.48,0,0,1,0-1.44c0.42-.54.87-1.07,1.31-1.59l0.75-.9a4.74,4.74,0,0,0-.45.34c-0.37.32-.74,0.67-1.09,1s-0.94.9-1.45,1.31a3,3,0,0,1-1.86.63,2.75,2.75,0,0,1-2.64-1.64,1.34,1.34,0,0,1,.11-0.9,0.58,0.58,0,0,1,.29-0.33l1.88-.69A73.28,73.28,0,0,1,117.89,29a6.39,6.39,0,0,1,1.59-.2,6.76,6.76,0,0,1,4.79,2.09,5,5,0,0,1,1.28,5.33,6.18,6.18,0,0,1-4.74,4.14,7.44,7.44,0,0,1-1.72.2,15.64,15.64,0,0,1-5.44-1.34l-0.83-.31a57,57,0,0,0-6.58-2.18,5,5,0,0,0-5.32,1.84,3.25,3.25,0,0,0-.68,2.38,2.08,2.08,0,0,0,.79,1.42,1,1,0,0,0,1.51-.09,1.14,1.14,0,0,0,.24-0.86,1,1,0,0,0-.52-0.6l-0.41-.25-0.3-.19,0-.13a2.5,2.5,0,0,1,2.34-1.77,2,2,0,0,1,1.34.49,1.8,1.8,0,0,1,.48,1.6,15.09,15.09,0,0,1-1,2.13l-0.13.25a3.82,3.82,0,0,0,1.21-2.13,8.72,8.72,0,0,0,.24-1.49,1.83,1.83,0,0,1,1.78-1.6,2.21,2.21,0,0,1,1.51.55,1.6,1.6,0,0,1,.35,2.25l-0.3.45c-0.25.38-.51,0.76-0.74,1.17,0.36-.4.72-0.81,1.05-1.23a3.48,3.48,0,0,1,2.63-1.59c1,0,2,.7,2.84,2l0.15,0.24-0.28,0a10,10,0,0,0-4.38,2c-0.54.37-1.11,0.75-1.69,1.07A9.88,9.88,0,0,1,104.15,46.22Zm1.4-11.49a8.49,8.49,0,0,0-5.24,1.76,4.82,4.82,0,0,0-1.84,4.95A4.57,4.57,0,0,0,102,45.52a8.37,8.37,0,0,0,6.88-1.06c0.57-.32,1.12-0.7,1.66-1.06a10.71,10.71,0,0,1,4.25-2,3,3,0,0,0-2.38-1.64A3.15,3.15,0,0,0,110,41.19c-0.42.53-.88,1-1.32,1.53l-0.6.67-0.67.76,0.36-.94a12.26,12.26,0,0,1,1.33-2.38l0.3-.45a1.25,1.25,0,0,0-.27-1.78,1.87,1.87,0,0,0-1.23-.47,1.42,1.42,0,0,0-1.48,1.28A9,9,0,0,1,106.2,41a3.66,3.66,0,0,1-1.93,2.68l-0.46.2L104,43.4c0.13-.27.28-0.55,0.42-0.82a14.85,14.85,0,0,0,1-2.08,1.44,1.44,0,0,0-.37-1.21,1.66,1.66,0,0,0-1.1-.41,2.14,2.14,0,0,0-2,1.39l0.06,0,0.39,0.24a1.3,1.3,0,0,1,.69.83,1.45,1.45,0,0,1-.29,1.15,1.31,1.31,0,0,1-2,.17A2.43,2.43,0,0,1,99.88,41a3.57,3.57,0,0,1,.75-2.65,5.23,5.23,0,0,1,4.23-2.15,6.22,6.22,0,0,1,1.45.18,57.15,57.15,0,0,1,6.62,2.19l0.83,0.31a15.39,15.39,0,0,0,5.31,1.31,7.08,7.08,0,0,0,1.63-.19,5.83,5.83,0,0,0,4.48-3.9,4.68,4.68,0,0,0-1.19-5,6.24,6.24,0,0,0-6-1.8,72.87,72.87,0,0,0-7,2.33l-1.88.69a1.07,1.07,0,0,0-.19.76,2.39,2.39,0,0,0,2.3,1.41A2.61,2.61,0,0,0,112.8,34c0.5-.4,1-0.85,1.43-1.29s0.72-.69,1.1-1a7.38,7.38,0,0,1,1-.67l0.43-.27,0.89-.59L117,31c-0.47.61-1,1.19-1.43,1.74s-0.88,1-1.3,1.57a1.15,1.15,0,0,0,0,1,2.22,2.22,0,0,0,1.22,1,1.9,1.9,0,0,0,2.25-1.56,5.46,5.46,0,0,1,.9-1.6c0.16-.22.32-0.44,0.46-0.66l0.47-.76-0.14.88a6.59,6.59,0,0,1-.53,1.58,8.2,8.2,0,0,0-.36.94,1.33,1.33,0,0,0,.87,1.69,1.48,1.48,0,0,0,.55.09,2.7,2.7,0,0,0,1.94-.8c0.32-.45.14-0.59-0.19-0.84a1.63,1.63,0,0,1-.42-0.41,1.76,1.76,0,0,1-.11-1.07,4.44,4.44,0,0,0,0-.45V33.17h0.24l0.42,0,0.45,0a0.88,0.88,0,0,1,.64.19,2.64,2.64,0,0,1,.6,1.72,3.2,3.2,0,0,1-3.12,3.17,17.13,17.13,0,0,1-5-.59,32.35,32.35,0,0,1-3.43-1.24c-0.9-.37-1.84-0.75-2.78-1A11.89,11.89,0,0,0,105.56,34.72Zm49,9.3V39.12l0.22,0.05c2.06,0.48,3.19,2,4.28,3.43l0.52,0.69ZM155,39.57v4l4-.59-0.16-.2C157.8,41.47,156.75,40.08,155,39.57ZM98,43.75l-5.28-.3,0.09-.23a7.18,7.18,0,0,1,4.43-4.51l0.22-.09Zm-4.77-.63,4.37,0.25-0.46-4.23A6.77,6.77,0,0,0,93.25,43.12Zm32.82-3.32h0a1.41,1.41,0,0,1-.83-0.44,3.62,3.62,0,0,0-.29-0.23L124.77,39l0.15-.15c0.1-.1.2-0.22,0.3-0.33a2.66,2.66,0,0,1,.87-0.76l0,0h0.08a1.47,1.47,0,0,1,.75.5c0.17,0.15.36,0.33,0.57,0.49l0.21,0.16-0.23.13c-0.22.12-.4,0.25-0.56,0.36A1.7,1.7,0,0,1,126.07,39.8ZM125.32,39l0.15,0.13a1.22,1.22,0,0,0,.59.36h0a1.53,1.53,0,0,0,.69-0.34l0.36-.24-0.39-.34a3,3,0,0,0-.5-0.41,2.47,2.47,0,0,0-.72.65Zm1.07-6.09-2.94-4,0.17-.1a6.33,6.33,0,0,1,5.55-.28l0.23,0.08ZM124,29l2.4,3.26,2.45-3.49A5.93,5.93,0,0,0,124,29Z" transform="translate(0 -26.83)"/><path class="cls-2" d="M126.32,100.76A28.65,28.65,0,1,1,155,72.11,28.69,28.69,0,0,1,126.32,100.76Zm0-56a27.34,27.34,0,1,0,27.34,27.34A27.37,27.37,0,0,0,126.32,44.77Z" transform="translate(0 -26.83)"/><path class="cls-2" d="M107.76,85.89c-0.47-.23-0.5-0.37-0.5-1.27,0-1.67.13-3,.17-3.54,0-.37.1-0.53,0.27-0.53s0.23,0.1.23,0.37a5.84,5.84,0,0,0,.1,1.24c0.5,2.47,2.71,3.41,4.95,3.41a4.46,4.46,0,0,0,4.78-4.45c0-2.31-1-3.64-3.85-6l-1.5-1.24c-3.54-2.91-4.35-5-4.35-7.26,0-3.58,2.68-6,6.92-6a13,13,0,0,1,3.11.33,5.46,5.46,0,0,0,1.17.17c0.27,0,.34.07,0.34,0.23s-0.13,1.27-.13,3.54c0,0.53-.07.77-0.23,0.77S119,65.46,119,65.2a5.84,5.84,0,0,0-.44-1.67c-0.2-.37-1.1-1.77-4.18-1.77a3.8,3.8,0,0,0-4.11,3.88c0,1.91.87,3.11,4.08,5.62L115.25,72c3.94,3.11,4.88,5.18,4.88,7.86a6.93,6.93,0,0,1-2.84,5.55,8.8,8.8,0,0,1-5,1.4A10.15,10.15,0,0,1,107.76,85.89Z" transform="translate(0 -26.83)"/><path class="cls-2" d="M136.11,82.25c1.94-4.48,6.42-16.15,7.16-18.56a4.84,4.84,0,0,0,.3-1.27,0.82,0.82,0,0,0-.43-0.77,4.2,4.2,0,0,0-1.27-.13c-0.2,0-.37,0-0.37-0.2s0.2-.27.74-0.27c1.34,0,2.88.1,3.28,0.1,0.2,0,1.64-.1,2.61-0.1,0.37,0,.57.07,0.57,0.23s-0.13.23-.4,0.23a3,3,0,0,0-1.61.4c-0.43.3-.94,0.87-1.84,3.14-0.37.94-2,4.95-3.74,9.06-2,4.88-3.54,8.49-4.31,10.13-0.94,2-1.07,2.54-1.41,2.54s-0.57-.47-1.2-2.07L126,64.23c-0.74-1.87-1.24-2.24-2.41-2.57a5.17,5.17,0,0,0-1.27-.13,0.22,0.22,0,0,1-.27-0.23c0-.2.33-0.23,0.87-0.23,1.61,0,3.51.1,3.91,0.1s1.84-.1,3.11-0.1c0.6,0,.9.07,0.9,0.23s-0.1.23-.33,0.23a3.9,3.9,0,0,0-1.27.17,0.67,0.67,0,0,0-.43.67,12.87,12.87,0,0,0,.9,2.78Z" transform="translate(0 -26.83)"/><rect x="5.41" y="123.69" width="244.55" height="0.64"/><path d="M9.42,135.86c0,2.47,0,4.5.13,5.59,0.08,0.75.23,1.31,1,1.42a11.28,11.28,0,0,0,1.16.1,0.17,0.17,0,0,1,.21.16c0,0.13-.13.21-0.41,0.21-1.42,0-3-.08-3.17-0.08s-1.75.08-2.52,0.08c-0.28,0-.41-0.05-0.41-0.21A0.17,0.17,0,0,1,5.61,143a4,4,0,0,0,.77-0.1c0.51-.1.64-0.67,0.75-1.42,0.13-1.08.13-3.11,0.13-5.59V125L3.45,125c-1.6,0-2.21.21-2.63,0.82a4.54,4.54,0,0,0-.44.8,0.29,0.29,0,0,1-.26.26c-0.08,0-.13-0.08-0.13-0.23S0.51,124.2.57,124a0.87,0.87,0,0,1,.26-0.49,4.85,4.85,0,0,0,1.13.31c0.75,0.08,1.72.13,2,.13h9.65a10.35,10.35,0,0,0,1.83-.13c0.39-.05.62-0.13,0.72-0.13s0.13,0.15.13,0.31c0,0.77-.08,2.55-0.08,2.83s-0.08.33-.18,0.33-0.18-.08-0.21-0.44l0-.28c-0.08-.77-0.7-1.36-3.17-1.42L9.42,125v10.89Z" transform="translate(0 -26.83)"/><path d="M34.44,137c0,2.11,0,3.84.13,4.74,0.08,0.64.13,1.06,0.82,1.16a8.86,8.86,0,0,0,1,.1,0.18,0.18,0,0,1,.21.18c0,0.1-.13.18-0.39,0.18-1.24,0-2.68-.08-2.81-0.08s-1.57.08-2.24,0.08c-0.26,0-.36-0.05-0.36-0.18A0.18,0.18,0,0,1,31,143a3,3,0,0,0,.67-0.1c0.46-.1.54-0.54,0.62-1.18,0.1-.9.1-2.55,0.1-4.66v-2.19a0.11,0.11,0,0,0-.13-0.13H22.8a0.11,0.11,0,0,0-.13.13V137c0,2.11,0,3.78.1,4.68a1,1,0,0,0,.82,1.16,9.24,9.24,0,0,0,1,.1,0.18,0.18,0,0,1,.18.18c0,0.1-.1.18-0.36,0.18-1.26,0-2.7-.08-2.81-0.08s-1.57.08-2.27,0.08c-0.23,0-.36-0.05-0.36-0.18A0.18,0.18,0,0,1,19.2,143a3.26,3.26,0,0,0,.7-0.1c0.44-.1.49-0.51,0.59-1.16a44.6,44.6,0,0,0,.13-4.74v-3.86c0-3.4,0-4-.05-4.71a1,1,0,0,0-.93-1.21,7.35,7.35,0,0,0-.77-0.05,0.22,0.22,0,0,1-.18-0.18c0-.13.1-0.18,0.36-0.18,1,0,2.47.05,2.6,0.05s1.54-.05,2.24-0.05c0.26,0,.36.05,0.36,0.18a0.22,0.22,0,0,1-.18.18,2.54,2.54,0,0,0-.57.05c-0.62.13-.75,0.44-0.8,1.21s0,1.36,0,4.76v0.46c0,0.13.05,0.13,0.13,0.13h9.45c0.08,0,.13,0,0.13-0.13v-0.46c0-3.4,0-4.07-.05-4.76s-0.15-1.11-.9-1.21a7.36,7.36,0,0,0-.77-0.05,0.19,0.19,0,0,1-.18-0.18c0-.13.1-0.18,0.36-0.18,1,0,2.47.05,2.57,0.05s1.57-.05,2.24-0.05c0.26,0,.39.05,0.39,0.18a0.22,0.22,0,0,1-.21.18,2.65,2.65,0,0,0-.57.05c-0.59.13-.72,0.44-0.77,1.21s-0.05,1.31-.05,4.71V137Z" transform="translate(0 -26.83)"/><path d="M41.9,133.11c0-3.4,0-4-.05-4.71a1,1,0,0,0-.93-1.21,7.35,7.35,0,0,0-.77-0.05A0.22,0.22,0,0,1,40,127c0-.13.1-0.18,0.36-0.18,1,0,2.5.05,2.63,0.05s4.89,0,5.41,0,0.85-.1,1-0.13a1.44,1.44,0,0,1,.31-0.1c0.08,0,.1.1,0.1,0.21s-0.13.41-.18,1c0,0.21-.08,1.18-0.13,1.44a0.28,0.28,0,0,1-.21.23c-0.13,0-.18-0.1-0.18-0.28a2.4,2.4,0,0,0-.13-0.77c-0.15-.36-0.39-0.52-1.62-0.67-0.39-.05-3-0.08-3.27-0.08-0.1,0-.13.08-0.13,0.23v5.95c0,0.16,0,.23.13,0.23,0.28,0,3.27,0,3.78-.05a1.72,1.72,0,0,0,1.11-.31,0.89,0.89,0,0,1,.33-0.28c0.08,0,.13.05,0.13,0.18a11.88,11.88,0,0,0-.18,1.21c-0.05.44-.1,1.26-0.1,1.42s-0.05.41-.21,0.41a0.17,0.17,0,0,1-.15-0.21,1.94,1.94,0,0,0-.1-0.72c-0.08-.31-0.28-0.57-1.16-0.67-0.62-.08-3-0.1-3.42-0.1a0.14,0.14,0,0,0-.15.15V137c0,0.75,0,3.29,0,3.73,0.05,1.47.46,1.75,2.7,1.75a7.56,7.56,0,0,0,2.27-.23,1.66,1.66,0,0,0,1-1.52c0.05-.26.1-0.33,0.23-0.33s0.15,0.18.15,0.33a18.23,18.23,0,0,1-.31,2.11c-0.15.57-.39,0.57-1.26,0.57-1.7,0-3-.05-3.94-0.08s-1.54-.05-1.88-0.05c-0.05,0-.49,0-1,0s-1,.05-1.31.05-0.36-.05-0.36-0.18a0.18,0.18,0,0,1,.18-0.18,6.45,6.45,0,0,0,.7-0.1c0.44-.08.49-0.51,0.59-1.16A44.68,44.68,0,0,0,41.9,137v-3.86Z" transform="translate(0 -26.83)"/><path class="cls-2" d="M63.39,143C63,142.81,63,142.71,63,142c0-1.29.1-2.32,0.13-2.73s0.08-.41.21-0.41,0.18,0.08.18,0.28a4.52,4.52,0,0,0,.08,1c0.39,1.91,2.09,2.63,3.81,2.63a3.44,3.44,0,0,0,3.68-3.42c0-1.78-.75-2.81-3-4.63l-1.16-1c-2.73-2.24-3.35-3.84-3.35-5.59,0-2.75,2.06-4.63,5.33-4.63a10,10,0,0,1,2.39.26,4.17,4.17,0,0,0,.9.13c0.21,0,.26.05,0.26,0.18s-0.1,1-.1,2.73c0,0.41-.05.59-0.18,0.59S72,127.27,72,127.06a4.53,4.53,0,0,0-.34-1.29c-0.15-.28-0.85-1.36-3.22-1.36a2.93,2.93,0,0,0-3.17,3c0,1.47.67,2.39,3.14,4.32l0.72,0.57c3,2.39,3.76,4,3.76,6a5.33,5.33,0,0,1-2.19,4.27,6.77,6.77,0,0,1-3.89,1.08A7.8,7.8,0,0,1,63.39,143Z" transform="translate(0 -26.83)"/><path d="M81.17,137c0,2.11,0,3.84.1,4.74a1,1,0,0,0,.82,1.16,9.25,9.25,0,0,0,1,.1,0.18,0.18,0,0,1,.18.18c0,0.1-.1.18-0.36,0.18-1.26,0-2.73-.08-2.83-0.08s-1.54.08-2.24,0.08c-0.23,0-.36-0.05-0.36-0.18A0.18,0.18,0,0,1,77.7,143a3.26,3.26,0,0,0,.7-0.1c0.44-.1.51-0.51,0.59-1.16,0.1-.9.13-2.63,0.13-4.74v-3.86c0-3.4,0-4-.05-4.71a1,1,0,0,0-.72-1.18,4.06,4.06,0,0,0-.69-0.08,0.19,0.19,0,0,1-.18-0.18c0-.13.1-0.18,0.36-0.18,0.75,0,2.16.05,2.29,0.05s1.57-.05,2.27-0.05c0.26,0,.36.05,0.36,0.18a0.22,0.22,0,0,1-.18.18,2.54,2.54,0,0,0-.57.05c-0.62.13-.75,0.44-0.8,1.21s0,1.31,0,4.71V137Z" transform="translate(0 -26.83)"/><path d="M90.67,137c0,3.22.05,4.53,0.46,4.92s1.24,0.51,3,.51c1.18,0,2.19,0,2.73-.67a2.68,2.68,0,0,0,.54-1.24,0.28,0.28,0,0,1,.23-0.28c0.1,0,.15.1,0.15,0.33a13.81,13.81,0,0,1-.33,2.19c-0.15.51-.23,0.59-1.44,0.59-1.62,0-2.88,0-3.94-.08s-1.8-.05-2.47-0.05c-0.1,0-.49,0-0.93,0s-1,.05-1.31.05S87,143.28,87,143.15A0.18,0.18,0,0,1,87.2,143a3.25,3.25,0,0,0,.7-0.1c0.44-.1.49-0.51,0.59-1.16a44.61,44.61,0,0,0,.13-4.74v-3.86c0-3.4,0-4-.05-4.71a1,1,0,0,0-.93-1.21,7.37,7.37,0,0,0-.77-0.05,0.22,0.22,0,0,1-.18-0.18c0-.13.1-0.18,0.36-0.18,1,0,2.45.05,2.57,0.05s1.8-.05,2.5-0.05c0.23,0,.36.05,0.36,0.18a0.19,0.19,0,0,1-.18.15c-0.15,0-.49,0-0.75.05-0.67.13-.8,0.46-0.85,1.24s0,1.31,0,4.71V137Z" transform="translate(0 -26.83)"/><path d="M102.38,133.11c0-3.4,0-4-.05-4.71a1,1,0,0,0-.93-1.21,7.36,7.36,0,0,0-.77-0.05,0.22,0.22,0,0,1-.18-0.18c0-.13.1-0.18,0.36-0.18,1,0,2.5.05,2.63,0.05s4.89,0,5.41,0,0.85-.1,1-0.13a1.46,1.46,0,0,1,.31-0.1c0.08,0,.1.1,0.1,0.21s-0.13.41-.18,1c0,0.21-.08,1.18-0.13,1.44a0.28,0.28,0,0,1-.21.23c-0.13,0-.18-0.1-0.18-0.28a2.4,2.4,0,0,0-.13-0.77c-0.15-.36-0.39-0.52-1.62-0.67-0.39-.05-3-0.08-3.27-0.08-0.1,0-.13.08-0.13,0.23v5.95c0,0.16,0,.23.13,0.23,0.28,0,3.27,0,3.78-.05a1.72,1.72,0,0,0,1.11-.31,0.89,0.89,0,0,1,.33-0.28c0.08,0,.13.05,0.13,0.18a11.8,11.8,0,0,0-.18,1.21c-0.05.44-.1,1.26-0.1,1.42s-0.05.41-.21,0.41a0.17,0.17,0,0,1-.15-0.21,1.93,1.93,0,0,0-.1-0.72c-0.08-.31-0.28-0.57-1.16-0.67-0.62-.08-3-0.1-3.42-0.1a0.14,0.14,0,0,0-.15.15V137c0,0.75,0,3.29,0,3.73,0.05,1.47.46,1.75,2.7,1.75a7.56,7.56,0,0,0,2.27-.23,1.66,1.66,0,0,0,1-1.52c0.05-.26.1-0.33,0.23-0.33s0.15,0.18.15,0.33a18.1,18.1,0,0,1-.31,2.11c-0.15.57-.39,0.57-1.26,0.57-1.7,0-3-.05-3.94-0.08s-1.54-.05-1.88-0.05c-0.05,0-.49,0-1,0s-1,.05-1.31.05-0.36-.05-0.36-0.18A0.18,0.18,0,0,1,101,143a6.48,6.48,0,0,0,.7-0.1c0.44-.08.49-0.51,0.59-1.16a44.6,44.6,0,0,0,.13-4.74v-3.86Z" transform="translate(0 -26.83)"/><path d="M117.51,140.34c0.05,1.8.26,2.34,0.88,2.5a5.32,5.32,0,0,0,1.13.13,0.18,0.18,0,0,1,.18.18c0,0.13-.15.18-0.41,0.18-1.29,0-2.19-.08-2.39-0.08s-1.16.08-2.19,0.08c-0.23,0-.36,0-0.36-0.18a0.18,0.18,0,0,1,.18-0.18,3.53,3.53,0,0,0,.93-0.13c0.57-.15.64-0.75,0.64-2.73V127.58c0-.88.13-1.11,0.31-1.11a2.05,2.05,0,0,1,.88.67c0.36,0.36,3.66,3.86,7.16,7.46,2.24,2.32,4.66,4.92,5.35,5.64l-0.23-11c0-1.42-.15-1.91-0.85-2a7.3,7.3,0,0,0-1.11-.1,0.18,0.18,0,0,1-.18-0.21c0-.13.18-0.15,0.44-0.15,1,0,2.11.05,2.37,0.05s1-.05,1.93-0.05c0.23,0,.41,0,0.41.15a0.26,0.26,0,0,1-.26.21,2.57,2.57,0,0,0-.54.05c-0.75.15-.8,0.59-0.8,1.91l-0.05,12.82c0,1.44,0,1.57-.18,1.57s-0.46-.18-1.72-1.34c-0.23-.21-3.5-3.42-5.89-5.92-2.63-2.75-5.17-5.43-5.87-6.2Z" transform="translate(0 -26.83)"/><path d="M142.94,137c0,2.11,0,3.84.1,4.74a1,1,0,0,0,.88,1.16,8.69,8.69,0,0,0,1,.1,0.16,0.16,0,0,1,.18.18c0,0.1-.1.18-0.36,0.18-1.24,0-2.68-.08-2.81-0.08s-1.67.08-2.34,0.08c-0.26,0-.36-0.05-0.36-0.18a0.16,0.16,0,0,1,.18-0.16,3,3,0,0,0,.67-0.1,1.12,1.12,0,0,0,.67-1.18c0.1-.9.1-2.63,0.1-4.74v-9.19l-3.27.05c-1.42,0-2,.18-2.29.7a3.47,3.47,0,0,0-.36.7,0.22,0.22,0,0,1-.23.21,0.17,0.17,0,0,1-.15-0.18c0-.23.44-2.19,0.49-2.37a0.7,0.7,0,0,1,.23-0.41,8,8,0,0,0,1,.26c0.64,0.08,1.52.1,1.78,0.1h8.54a11.21,11.21,0,0,0,1.62-.1c0.33-.05.54-0.1,0.64-0.1s0.1,0.13.1,0.26c0,0.67-.08,2.24-0.08,2.5a0.25,0.25,0,0,1-.21.28c-0.1,0-.15-0.08-0.18-0.39l0-.23c-0.08-.67-0.57-1.16-2.73-1.21l-2.83-.05V137Z" transform="translate(0 -26.83)"/><path class="cls-2" d="M168.24,140.19c1.49-3.45,4.94-12.43,5.51-14.29a3.68,3.68,0,0,0,.23-1,0.64,0.64,0,0,0-.33-0.59,3.27,3.27,0,0,0-1-.1c-0.15,0-.28,0-0.28-0.15s0.15-.21.57-0.21c1,0,2.21.08,2.52,0.08,0.15,0,1.26-.08,2-0.08,0.28,0,.44.05,0.44,0.18s-0.1.18-.31,0.18a2.34,2.34,0,0,0-1.24.31c-0.33.23-.72,0.67-1.42,2.42-0.28.72-1.57,3.81-2.88,7-1.57,3.76-2.73,6.54-3.32,7.8-0.72,1.54-.82,2-1.08,2s-0.44-.36-0.93-1.6l-6.31-15.78c-0.57-1.44-1-1.73-1.85-2a4,4,0,0,0-1-.1,0.17,0.17,0,0,1-.21-0.18c0-.15.26-0.18,0.67-0.18,1.24,0,2.7.08,3,.08s1.42-.08,2.39-0.08c0.46,0,.69.05,0.69,0.18s-0.08.18-.26,0.18a3,3,0,0,0-1,.13,0.52,0.52,0,0,0-.33.51,9.87,9.87,0,0,0,.69,2.14Z" transform="translate(0 -26.83)"/><path d="M187.41,126.47c5.1,0,9,3.12,9,8.21a8.77,8.77,0,0,1-9.09,8.93,8.39,8.39,0,0,1-8.85-8.6A8.67,8.67,0,0,1,187.41,126.47Zm0.51,16.24c2,0,6.13-1.08,6.13-7.41,0-5.25-3.19-8-6.77-8-3.78,0-6.51,2.37-6.51,7.13C180.77,139.52,183.84,142.71,187.93,142.71Z" transform="translate(0 -26.83)"/><path d="M215.75,140.09h0.1c0.57-1.8,2.6-8.13,3.4-10.94a4.59,4.59,0,0,0,.26-1.36c0-.39-0.18-0.64-1.21-0.64a0.22,0.22,0,0,1-.21-0.21c0-.1.1-0.15,0.39-0.15,1.16,0,2.11.05,2.32,0.05s1.13-.05,1.83-0.05c0.21,0,.31.05,0.31,0.13a0.21,0.21,0,0,1-.21.23,3.75,3.75,0,0,0-.77.1c-0.67.23-1,1.11-1.47,2.32-1,2.78-3.24,9.73-4.14,12.18-0.59,1.62-.72,1.88-1,1.88s-0.44-.28-0.75-1.13l-4.43-12c-0.77,1.9-3.84,9.94-4.66,12-0.39.93-.54,1.16-0.8,1.16s-0.41-.23-0.88-1.72l-4-13c-0.36-1.16-.59-1.44-1.18-1.65a4.3,4.3,0,0,0-1-.13,0.2,0.2,0,0,1-.21-0.21c0-.1.15-0.15,0.36-0.15,1.18,0,2.45.05,2.68,0.05s1.24-.05,2.37-0.05c0.31,0,.41.05,0.41,0.15a0.23,0.23,0,0,1-.23.21,1.91,1.91,0,0,0-.8.13,0.44,0.44,0,0,0-.31.46,12.73,12.73,0,0,0,.44,2c0.36,1.39,2.68,9.42,3,10.32h0.05l4.74-12.25c0.33-.87.49-1,0.62-1a1.48,1.48,0,0,1,.62,1Z" transform="translate(0 -26.83)"/><path d="M226.58,133.11c0-3.4,0-4-.05-4.71a1,1,0,0,0-.93-1.21,7.34,7.34,0,0,0-.77-0.05,0.22,0.22,0,0,1-.18-0.18c0-.13.1-0.18,0.36-0.18,1,0,2.5.05,2.63,0.05s4.89,0,5.41,0,0.85-.1,1-0.13a1.45,1.45,0,0,1,.31-0.1c0.08,0,.1.1,0.1,0.21s-0.13.41-.18,1c0,0.21-.08,1.18-0.13,1.44a0.28,0.28,0,0,1-.21.23c-0.13,0-.18-0.1-0.18-0.28a2.4,2.4,0,0,0-.13-0.77c-0.15-.36-0.39-0.52-1.62-0.67-0.39-.05-3-0.08-3.27-0.08-0.1,0-.13.08-0.13,0.23v5.95c0,0.16,0,.23.13,0.23,0.28,0,3.27,0,3.78-.05a1.72,1.72,0,0,0,1.11-.31,0.89,0.89,0,0,1,.33-0.28c0.08,0,.13.05,0.13,0.18a11.92,11.92,0,0,0-.18,1.21c-0.05.44-.1,1.26-0.1,1.42s-0.05.41-.21,0.41a0.17,0.17,0,0,1-.15-0.21,1.93,1.93,0,0,0-.1-0.72c-0.08-.31-0.28-0.57-1.16-0.67-0.62-.08-3-0.1-3.42-0.1a0.14,0.14,0,0,0-.15.15V137c0,0.75,0,3.29,0,3.73,0.05,1.47.46,1.75,2.7,1.75a7.56,7.56,0,0,0,2.27-.23,1.66,1.66,0,0,0,1-1.52c0.05-.26.1-0.33,0.23-0.33s0.15,0.18.15,0.33a18,18,0,0,1-.31,2.11c-0.16.57-.39,0.57-1.26,0.57-1.7,0-3-.05-3.94-0.08s-1.54-.05-1.88-0.05c-0.05,0-.49,0-1,0s-1,.05-1.31.05-0.36-.05-0.36-0.18a0.18,0.18,0,0,1,.18-0.18,6.46,6.46,0,0,0,.69-0.1c0.44-.08.49-0.51,0.59-1.16a44.73,44.73,0,0,0,.13-4.74v-3.86Z" transform="translate(0 -26.83)"/><path d="M242.82,137c0,3.22.05,4.53,0.46,4.92s1.23,0.51,3,.51c1.18,0,2.19,0,2.73-.67a2.69,2.69,0,0,0,.54-1.24,0.28,0.28,0,0,1,.23-0.28c0.1,0,.15.1,0.15,0.33a13.79,13.79,0,0,1-.33,2.19c-0.15.51-.23,0.59-1.44,0.59-1.62,0-2.88,0-3.94-.08s-1.8-.05-2.47-0.05c-0.1,0-.49,0-0.93,0s-1,.05-1.31.05-0.36-.05-0.36-0.18a0.17,0.17,0,0,1,.18-0.18,3.25,3.25,0,0,0,.69-0.1c0.44-.1.49-0.51,0.59-1.16a44.48,44.48,0,0,0,.13-4.74v-3.86c0-3.4,0-4-.05-4.71a1,1,0,0,0-.93-1.21,7.37,7.37,0,0,0-.77-0.05,0.22,0.22,0,0,1-.18-0.18c0-.13.1-0.18,0.36-0.18,1,0,2.44.05,2.57,0.05s1.8-.05,2.5-0.05c0.23,0,.36.05,0.36,0.18a0.19,0.19,0,0,1-.18.15c-0.15,0-.49,0-0.75.05-0.67.13-.8,0.46-0.85,1.24s0,1.31,0,4.71V137Z" transform="translate(0 -26.83)"/><path d="M51.11,166.64c-0.18,0-1.08,0-1.93,0-0.27,0-.39,0-0.39-0.11a0.11,0.11,0,0,1,.1-0.11,0.12,0.12,0,0,0,.07-0.07,0.3,0.3,0,0,0,0-.24l-1.14-3a0.09,0.09,0,0,0-.09-0.06H45.07a0.11,0.11,0,0,0-.1.08l-0.74,2.18a2.55,2.55,0,0,0-.17.82,0.4,0.4,0,0,0,.44.33h0.12a0.12,0.12,0,0,1,.15.1c0,0.12-.16.12-0.21,0.12l-0.65,0h-0.6l-1.11,0c-0.13,0-.26,0-0.26-0.12a0.11,0.11,0,0,1,.13-0.1l0.35,0a1.38,1.38,0,0,0,1-1.14l2.79-7.64c0.15-.41.2-0.5,0.29-0.5s0.14,0.06.29,0.46l0.52,1.34c0.67,1.76,1.81,4.74,2.35,6.08,0.43,1.05.77,1.27,1,1.35a1.51,1.51,0,0,0,.49.07,0.12,0.12,0,0,1,.15.1C51.38,166.6,51.29,166.64,51.11,166.64ZM46.34,159a0.15,0.15,0,0,0-.07.12l-1.08,3.32,2.36,0.06-1.14-3.38A0.15,0.15,0,0,0,46.34,159Z" transform="translate(0 -26.83)"/><path d="M46.27,157.62c0.15-.41.2-0.48,0.27-0.48s0.12,0.06.27,0.44,2.12,5.55,2.87,7.42c0.44,1.09.8,1.29,1.06,1.36a1.53,1.53,0,0,0,.49.07c0.07,0,.12,0,0.12.07s-0.11.1-.25,0.1-1.08,0-1.93,0c-0.23,0-.37,0-0.37-0.09a0.09,0.09,0,0,1,.09-0.09c0.07,0,.15-0.14.07-0.33l-1.14-3a0.11,0.11,0,0,0-.11-0.07H45.07a0.13,0.13,0,0,0-.12.1l-0.74,2.18a2.58,2.58,0,0,0-.17.82,0.42,0.42,0,0,0,.47.36h0.12c0.09,0,.12,0,0.12.07s-0.07.1-.18,0.1c-0.3,0-.82,0-1,0s-0.81,0-1.39,0c-0.16,0-.23,0-0.23-0.1a0.09,0.09,0,0,1,.11-0.07l0.36,0a1.4,1.4,0,0,0,1-1.16Zm1.28,4.92c0.06,0,.06,0,0-0.09l-1.17-3.32c-0.06-.18-0.12-0.18-0.18,0l-1.08,3.32c0,0.06,0,.09,0,0.09h2.35Z" transform="translate(0 -26.83)"/><path d="M68.17,166.64a2.54,2.54,0,0,1-1.33-.24,5.59,5.59,0,0,1-1.51-1.61l-0.16-.21c-0.29-.38-0.61-0.81-0.87-1.17l-0.47-.65a0.17,0.17,0,0,0-.14-0.06l-1.51,0s-0.06,0-.06.08V163c0,1.2,0,2.15.06,2.67a0.57,0.57,0,0,0,.46.66l0.55,0a0.1,0.1,0,0,1,.12.1c0,0.06,0,.12-0.22.12-0.52,0-1.1,0-1.37,0H61.58l-1.16,0c-0.11,0-.22,0-0.22-0.12a0.1,0.1,0,0,1,.12-0.1,1.85,1.85,0,0,0,.36,0,0.65,0.65,0,0,0,.34-0.66c0.06-.52.06-1.47,0.06-2.67v-2.16c0-1.92,0-2.26,0-2.66a0.59,0.59,0,0,0-.51-0.68,2.24,2.24,0,0,0-.41,0,0.11,0.11,0,0,1-.12-0.1c0-.11.11-0.12,0.22-0.12,0.42,0,1,0,1.22,0H62l1,0a3.82,3.82,0,0,1,2.27.55,2.18,2.18,0,0,1,.86,1.69,3.85,3.85,0,0,1-1.5,2.86l0.39,0.46c0.83,1.07,1.55,2,2.17,2.65a2.54,2.54,0,0,0,1.49.88,2.91,2.91,0,0,0,.48,0,0.12,0.12,0,0,1,.13.1c0,0.1-.11.12-0.32,0.12H68.17ZM63,157.73a3.87,3.87,0,0,0-.82.07,0.13,0.13,0,0,0-.08.13v4a0.14,0.14,0,0,0,.08.13,3.36,3.36,0,0,0,1.28.19,1.59,1.59,0,0,0,.91-0.23,2.24,2.24,0,0,0,.74-1.88C65.12,158.64,64.33,157.73,63,157.73Z" transform="translate(0 -26.83)"/><path d="M61.11,160.88c0-1.92,0-2.26,0-2.66a0.6,0.6,0,0,0-.53-0.7,2.25,2.25,0,0,0-.42,0,0.09,0.09,0,0,1-.1-0.07c0-.07.06-0.1,0.2-0.1,0.55,0,1.33,0,1.39,0s1.07,0,1.45,0a3.79,3.79,0,0,1,2.25.54,2.15,2.15,0,0,1,.85,1.67,3.79,3.79,0,0,1-1.49,2.84c1,1.29,1.85,2.39,2.56,3.15a2.54,2.54,0,0,0,1.5.89,3,3,0,0,0,.48,0,0.1,0.1,0,0,1,.11.07c0,0.07-.07.1-0.3,0.1H68.17a2.51,2.51,0,0,1-1.32-.23,6.42,6.42,0,0,1-1.66-1.81c-0.52-.68-1.09-1.5-1.34-1.82a0.2,0.2,0,0,0-.16-0.07l-1.51,0a0.08,0.08,0,0,0-.09.1V163c0,1.18,0,2.15.06,2.67a0.59,0.59,0,0,0,.48.68l0.55,0a0.08,0.08,0,0,1,.1.07c0,0.06-.06.1-0.2,0.1-0.68,0-1.45,0-1.51,0s-0.79,0-1.16,0c-0.14,0-.2,0-0.2-0.1a0.08,0.08,0,0,1,.1-0.07,1.9,1.9,0,0,0,.37,0,0.66,0.66,0,0,0,.36-0.68c0.06-.52.06-1.49,0.06-2.67v-2.16Zm1,1.07a0.16,0.16,0,0,0,.09.15,3.37,3.37,0,0,0,1.29.2,1.6,1.6,0,0,0,.92-0.23,2.24,2.24,0,0,0,.75-1.89c0-1.54-.81-2.46-2.13-2.46a3.76,3.76,0,0,0-.82.07,0.15,0.15,0,0,0-.1.15v4Z" transform="translate(0 -26.83)"/><path d="M82,166.64c-0.52,0-1.1,0-1.37,0H80.28l-1,0c-0.11,0-.22,0-0.22-0.12a0.1,0.1,0,0,1,.12-0.1,1.89,1.89,0,0,0,.36,0,0.65,0.65,0,0,0,.34-0.66c0.06-.52.06-1.47,0.06-2.67v-5.2l-1.8,0a1.29,1.29,0,0,0-1.24.38,2.09,2.09,0,0,0-.21.38,0.16,0.16,0,0,1-.14.14s-0.08,0-.08-0.13,0.25-1.21.27-1.28a0.32,0.32,0,0,1,.14-0.25,0.35,0.35,0,0,1,.12,0,1.15,1.15,0,0,0,.42.11c0.36,0,.82.06,1,0.06H83a5.05,5.05,0,0,0,.87-0.06l0.24,0,0.11,0c0.09,0,.09.1,0.09,0.17,0,0.23,0,.65,0,1s0,0.34,0,.39-0.08.18-.11,0.18-0.11-.07-0.12-0.23v-0.13c0-.31-0.23-0.63-1.49-0.66l-1.55,0L81,163c0,1.2,0,2.15.06,2.67a0.57,0.57,0,0,0,.46.66l0.55,0a0.1,0.1,0,0,1,.12.1S82.19,166.64,82,166.64Z" transform="translate(0 -26.83)"/><path d="M81,163c0,1.18,0,2.15.06,2.67a0.59,0.59,0,0,0,.48.68l0.55,0a0.08,0.08,0,0,1,.1.07c0,0.06-.06.1-0.2,0.1-0.68,0-1.45,0-1.51,0s-0.84,0-1.21,0c-0.14,0-.2,0-0.2-0.1a0.08,0.08,0,0,1,.1-0.07,1.88,1.88,0,0,0,.37,0,0.66,0.66,0,0,0,.36-0.68C80,165.2,80,164.23,80,163v-5.2l-1.82,0a1.32,1.32,0,0,0-1.26.39,2.12,2.12,0,0,0-.21.38,0.14,0.14,0,0,1-.12.12s-0.06,0-.06-0.11,0.25-1.18.27-1.28a0.41,0.41,0,0,1,.12-0.23,2.37,2.37,0,0,0,.54.15c0.36,0,.82.06,1,0.06H83a5,5,0,0,0,.87-0.06l0.34-.06c0.06,0,.06.07,0.06,0.15,0,0.37,0,1.22,0,1.35s0,0.16-.08.16-0.09,0-.1-0.21v-0.13c0-.37-0.33-0.65-1.51-0.68l-1.55,0V163Z" transform="translate(0 -26.83)"/><path d="M107,166.81a6,6,0,0,1-4.06-1.32,4.79,4.79,0,0,1-1.47-3.52,4.7,4.7,0,0,1,2.06-4.07,6.08,6.08,0,0,1,3.28-.78,10.76,10.76,0,0,1,1.89.21,6,6,0,0,0,1,.12c0.12,0,.17.06,0.17,0.14a1.92,1.92,0,0,1,0,.2,13.15,13.15,0,0,0-.07,1.55c0,0.19,0,.28-0.13.28s-0.1-.11-0.11-0.2a1.88,1.88,0,0,0-.26-0.8,3.55,3.55,0,0,0-2.87-1,3.9,3.9,0,0,0-2.62.81,4,4,0,0,0-1.21,3.11,5,5,0,0,0,1.3,3.39,4.46,4.46,0,0,0,3.21,1.31,3.3,3.3,0,0,0,1.39-.25,0.43,0.43,0,0,0,.23-0.41v-2.09c0-1-.06-1.11-0.54-1.24a2.28,2.28,0,0,0-.41,0,0.11,0.11,0,0,1-.12-0.1c0-.11.11-0.12,0.22-0.12,0.41,0,1,0,1.22,0h0.37l1,0c0.12,0,.22,0,0.22.12a0.11,0.11,0,0,1-.12.1l-0.3,0c-0.3.06-.41,0.23-0.43,0.68s0,0.76,0,1.28v1.38c0,0.55,0,.59-0.17.68A6,6,0,0,1,107,166.81Z" transform="translate(0 -26.83)"/><path d="M108.72,163.48c0-1-.06-1.13-0.56-1.27a2.28,2.28,0,0,0-.42,0,0.09,0.09,0,0,1-.1-0.08c0-.07.06-0.1,0.2-0.1,0.55,0,1.33,0,1.39,0s0.84,0,1.2,0c0.14,0,.2,0,0.2.1a0.09,0.09,0,0,1-.1.08l-0.31,0a0.59,0.59,0,0,0-.45.7c0,0.39,0,.76,0,1.28v1.38c0,0.55,0,.58-0.16.66a6.69,6.69,0,0,1-6.65-.76,4.8,4.8,0,0,1-1.46-3.51,4.66,4.66,0,0,1,2.05-4,6,6,0,0,1,3.27-.78,10.49,10.49,0,0,1,1.88.21,6.08,6.08,0,0,0,1,.12c0.12,0,.15.06,0.15,0.11a15.39,15.39,0,0,0-.09,1.75c0,0.2,0,.26-0.11.26s-0.07-.07-0.08-0.18a1.9,1.9,0,0,0-.26-0.81,3.57,3.57,0,0,0-2.89-1,3.51,3.51,0,0,0-3.85,3.94,5,5,0,0,0,1.3,3.41,4.48,4.48,0,0,0,3.22,1.32,3.37,3.37,0,0,0,1.4-.26,0.45,0.45,0,0,0,.25-0.43v-2.09Z" transform="translate(0 -26.83)"/><path d="M128.08,166.64c-0.19,0-1.08,0-1.93,0-0.27,0-.39,0-0.39-0.11a0.11,0.11,0,0,1,.1-0.11,0.12,0.12,0,0,0,.07-0.07,0.3,0.3,0,0,0,0-.24l-1.14-3a0.09,0.09,0,0,0-.09-0.06H122a0.11,0.11,0,0,0-.1.08l-0.74,2.18a2.53,2.53,0,0,0-.17.82,0.4,0.4,0,0,0,.44.33h0.12a0.11,0.11,0,0,1,.14.1c0,0.12-.16.12-0.21,0.12l-0.64,0h-0.6l-1.1,0c-0.13,0-.26,0-0.26-0.12a0.11,0.11,0,0,1,.13-0.1l0.35,0a1.37,1.37,0,0,0,1-1.14l2.79-7.64c0.14-.4.2-0.5,0.29-0.5s0.15,0.09.29,0.46l0.57,1.48c0.68,1.77,1.78,4.64,2.3,5.94,0.43,1.05.77,1.27,1,1.35a1.5,1.5,0,0,0,.49.07,0.12,0.12,0,0,1,.14.1C128.35,166.6,128.26,166.64,128.08,166.64ZM123.32,159a0.15,0.15,0,0,0-.07.12l-1.08,3.32,2.36,0.06-1.14-3.38A0.15,0.15,0,0,0,123.32,159Z" transform="translate(0 -26.83)"/><path d="M123.25,157.62c0.15-.41.2-0.48,0.27-0.48s0.12,0.06.27,0.44,2.12,5.55,2.87,7.42c0.44,1.09.8,1.29,1.06,1.36a1.53,1.53,0,0,0,.49.07c0.07,0,.12,0,0.12.07s-0.11.1-.25,0.1-1.08,0-1.93,0c-0.23,0-.37,0-0.37-0.09a0.09,0.09,0,0,1,.09-0.09c0.08,0,.15-0.14.08-0.33l-1.14-3a0.11,0.11,0,0,0-.11-0.07H122a0.13,0.13,0,0,0-.12.1l-0.74,2.18a2.52,2.52,0,0,0-.17.82,0.42,0.42,0,0,0,.47.36h0.12c0.09,0,.12,0,0.12.07s-0.07.1-.18,0.1c-0.29,0-.82,0-1,0s-0.81,0-1.39,0c-0.16,0-.24,0-0.24-0.1a0.09,0.09,0,0,1,.11-0.07l0.36,0a1.41,1.41,0,0,0,1-1.16Zm1.28,4.92c0.06,0,.06,0,0-0.09l-1.17-3.32c-0.06-.18-0.12-0.18-0.18,0l-1.08,3.32c0,0.06,0,.09,0,0.09h2.35Z" transform="translate(0 -26.83)"/><path d="M141.9,166.67c-0.68,0-1.22,0-1.67,0h-0.37c-0.52,0-.9,0-1.26,0h-0.5l-0.7,0c-0.11,0-.22,0-0.22-0.12a0.1,0.1,0,0,1,.12-0.1,1.87,1.87,0,0,0,.36,0,0.62,0.62,0,0,0,.34-0.66c0.06-.52.06-1.47,0.06-2.67v-2.16c0-1.92,0-2.26,0-2.66a0.59,0.59,0,0,0-.51-0.68,2.22,2.22,0,0,0-.41,0,0.11,0.11,0,0,1-.12-0.1c0-.11.11-0.12,0.22-0.12,0.42,0,1,0,1.23,0h0.39l1.1,0c0.11,0,.22,0,0.22.12a0.11,0.11,0,0,1-.12.1,2.81,2.81,0,0,0-.4,0c-0.32.06-.43,0.22-0.46,0.68s0,0.74,0,2.66v2.19c0,1.68,0,2.58.26,2.8a2,2,0,0,0,1.46.28,1.87,1.87,0,0,0,1.47-.36,1.68,1.68,0,0,0,.32-0.73,0.15,0.15,0,0,1,.13-0.18c0.09,0,.1.09,0.1,0.21a7.83,7.83,0,0,1-.18,1.24C142.6,166.63,142.55,166.67,141.9,166.67Z" transform="translate(0 -26.83)"/><path d="M139.12,163.07c0,1.81,0,2.6.27,2.82a2,2,0,0,0,1.47.28,1.86,1.86,0,0,0,1.49-.37,1.71,1.71,0,0,0,.32-0.74c0-.1,0-0.16.11-0.16s0.07,0,.07.18a7.91,7.91,0,0,1-.18,1.23c-0.09.28-.12,0.33-0.78,0.33-0.88,0-1.53,0-2,0s-0.9,0-1.26,0h-0.5l-0.7,0c-0.13,0-.2,0-0.2-0.1a0.08,0.08,0,0,1,.1-0.07,1.88,1.88,0,0,0,.37,0,0.66,0.66,0,0,0,.36-0.68c0.06-.52.06-1.49,0.06-2.67v-2.16c0-1.92,0-2.26,0-2.66a0.61,0.61,0,0,0-.53-0.7,2.24,2.24,0,0,0-.42,0,0.09,0.09,0,0,1-.1-0.07c0-.07.06-0.1,0.2-0.1,0.55,0,1.33,0,1.39,0s1,0,1.33,0c0.13,0,.2,0,0.2.1a0.09,0.09,0,0,1-.1.07,2.84,2.84,0,0,0-.4,0,0.58,0.58,0,0,0-.48.7c0,0.39,0,.74,0,2.66v2.19Z" transform="translate(0 -26.83)"/><path d="M157.18,166.67c-0.69,0-1.23,0-1.67,0h-0.37c-0.52,0-.9,0-1.25,0h-0.51l-0.7,0c-0.11,0-.22,0-0.22-0.12a0.1,0.1,0,0,1,.12-0.1,1.91,1.91,0,0,0,.36,0,0.63,0.63,0,0,0,.34-0.66c0.06-.52.06-1.47,0.06-2.67v-2.16c0-1.92,0-2.26,0-2.66a0.59,0.59,0,0,0-.51-0.68,2.26,2.26,0,0,0-.41,0,0.11,0.11,0,0,1-.12-0.1c0-.11.11-0.12,0.22-0.12,0.42,0,1,0,1.23,0h0.39l1.1,0c0.11,0,.22,0,0.22.12a0.11,0.11,0,0,1-.12.1,2.8,2.8,0,0,0-.4,0c-0.32.06-.43,0.22-0.46,0.68s0,0.74,0,2.66v2.19c0,1.68,0,2.58.26,2.8a2,2,0,0,0,1.46.28,1.87,1.87,0,0,0,1.47-.36,1.7,1.7,0,0,0,.32-0.73,0.16,0.16,0,0,1,.13-0.18c0.09,0,.1.09,0.1,0.21a8,8,0,0,1-.18,1.24C157.88,166.63,157.83,166.67,157.18,166.67Z" transform="translate(0 -26.83)"/><path d="M154.4,163.07c0,1.81.05,2.6,0.27,2.82a2,2,0,0,0,1.48.28,1.86,1.86,0,0,0,1.49-.37,1.73,1.73,0,0,0,.32-0.74c0-.1,0-0.16.11-0.16s0.07,0,.07.18a7.93,7.93,0,0,1-.18,1.23c-0.09.28-.12,0.33-0.78,0.33-0.89,0-1.53,0-2,0s-0.9,0-1.26,0h-0.51l-0.7,0c-0.14,0-.2,0-0.2-0.1a0.08,0.08,0,0,1,.1-0.07,1.92,1.92,0,0,0,.37,0,0.66,0.66,0,0,0,.36-0.68c0.06-.52.06-1.49,0.06-2.67v-2.16c0-1.92,0-2.26,0-2.66a0.61,0.61,0,0,0-.53-0.7,2.27,2.27,0,0,0-.42,0,0.09,0.09,0,0,1-.1-0.07c0-.07.06-0.1,0.2-0.1,0.55,0,1.33,0,1.39,0s1,0,1.33,0c0.13,0,.2,0,0.2.1a0.08,0.08,0,0,1-.1.07,2.83,2.83,0,0,0-.41,0,0.59,0.59,0,0,0-.48.7c0,0.39,0,.74,0,2.66v2.19Z" transform="translate(0 -26.83)"/><path d="M172.2,166.67c-0.75,0-1.34,0-1.8,0h-0.28l-1,0H168c-0.11,0-.22,0-0.22-0.12a0.1,0.1,0,0,1,.12-0.1,1.87,1.87,0,0,0,.36,0,0.65,0.65,0,0,0,.34-0.66c0.06-.52.06-1.47,0.06-2.67v-2.16c0-1.92,0-2.26,0-2.66a0.58,0.58,0,0,0-.51-0.68,2.23,2.23,0,0,0-.41,0,0.11,0.11,0,0,1-.12-0.1c0-.11.11-0.12,0.22-0.12h0.89l0.51,0c0.1,0,2.53,0,2.82,0a3.41,3.41,0,0,0,.52-0.06,0.5,0.5,0,0,1,.18-0.06s0.07,0,.07.13a0.8,0.8,0,0,1,0,.15,3.5,3.5,0,0,0-.07.43l0,0.22c0,0.21,0,.49,0,0.59a0.15,0.15,0,0,1-.11.16c-0.12,0-.12-0.14-0.12-0.18a1.26,1.26,0,0,0-.07-0.43c-0.08-.19-0.19-0.33-0.85-0.4-0.2,0-1.54,0-1.68,0s-0.05,0-.05.1v3.4c0,0.09,0,.1.05,0.1,0.28,0,1.68,0,2,0a0.83,0.83,0,0,0,.56-0.17,0.36,0.36,0,0,1,.2-0.17s0.08,0,.08.12a1.26,1.26,0,0,1,0,.15,5.34,5.34,0,0,0-.08.54c0,0.25,0,.7,0,0.79s0,0.26-.11.26a0.12,0.12,0,0,1-.11-0.13,1.23,1.23,0,0,0,0-.4,0.59,0.59,0,0,0-.62-0.42c-0.34,0-1.55-.06-1.76-0.06a0.06,0.06,0,0,0-.06.06v1.62c0,0.58,0,1.37,0,1.56,0,0.85.24,1,1.41,1a3.52,3.52,0,0,0,1.17-.13,1,1,0,0,0,.54-0.87c0-.13,0-0.2.13-0.2s0.1,0.12.1,0.21a11.84,11.84,0,0,1-.16,1.2C172.79,166.67,172.68,166.67,172.2,166.67Z" transform="translate(0 -26.83)"/><path d="M168.65,160.88c0-1.92,0-2.26,0-2.66a0.6,0.6,0,0,0-.53-0.7,2.26,2.26,0,0,0-.42,0,0.08,0.08,0,0,1-.1-0.07c0-.07.06-0.1,0.19-0.1h0.89l0.51,0c0.09,0,2.53,0,2.82,0a3.38,3.38,0,0,0,.53-0.06,0.85,0.85,0,0,1,.17-0.06s0,0,0,.11-0.06.23-.1,0.58c0,0.12,0,.67-0.06.81a0.14,0.14,0,0,1-.08.14c-0.07,0-.1-0.06-0.1-0.16a1.3,1.3,0,0,0-.08-0.44,0.83,0.83,0,0,0-.87-0.42c-0.21,0-1.55,0-1.68,0s-0.08,0-.08.12v3.4c0,0.09,0,.12.08,0.12s1.67,0,2,0a0.83,0.83,0,0,0,.58-0.17,0.37,0.37,0,0,1,.18-0.16s0.06,0,.06.1-0.06.28-.1,0.69c0,0.25,0,.7,0,0.79s0,0.23-.09.23a0.09,0.09,0,0,1-.09-0.11,1.29,1.29,0,0,0,0-.41,0.61,0.61,0,0,0-.64-0.43c-0.33,0-1.55-.06-1.76-0.06a0.08,0.08,0,0,0-.09.09V163c0,0.42,0,1.85,0,2.1,0,0.85.22,1,1.43,1a3.52,3.52,0,0,0,1.18-.14,1,1,0,0,0,.55-0.89c0-.14,0-0.18.11-0.18s0.07,0.1.07,0.18-0.1.93-.16,1.19-0.18.32-.66,0.32c-0.92,0-1.6,0-2.08,0l-1,0h-0.49l-0.71,0c-0.14,0-.2,0-0.2-0.1a0.08,0.08,0,0,1,.1-0.07,1.91,1.91,0,0,0,.37,0,0.66,0.66,0,0,0,.36-0.68c0.06-.52.06-1.49,0.06-2.67v-2.16Z" transform="translate(0 -26.83)"/><path d="M191.21,166.64a2.55,2.55,0,0,1-1.33-.24,5.61,5.61,0,0,1-1.51-1.6l-0.16-.21c-0.29-.38-0.59-0.8-0.85-1.15l-0.49-.67a0.17,0.17,0,0,0-.14-0.07l-1.51,0s-0.06,0-.06.08V163c0,1.2,0,2.15.06,2.67a0.57,0.57,0,0,0,.46.66l0.55,0a0.1,0.1,0,0,1,.12.1c0,0.06,0,.12-0.22.12-0.52,0-1.11,0-1.37,0h-0.14l-1.16,0c-0.11,0-.22,0-0.22-0.12a0.1,0.1,0,0,1,.12-0.1,1.92,1.92,0,0,0,.36,0,0.65,0.65,0,0,0,.34-0.66c0.06-.52.06-1.47,0.06-2.67v-2.16c0-1.92,0-2.26,0-2.66a0.59,0.59,0,0,0-.51-0.68,2.24,2.24,0,0,0-.41,0,0.11,0.11,0,0,1-.12-0.1c0-.11.11-0.12,0.22-0.12,0.42,0,1,0,1.23,0h0.58l1,0a3.82,3.82,0,0,1,2.26.55,2.17,2.17,0,0,1,.86,1.69,3.86,3.86,0,0,1-1.49,2.86l0.38,0.45c0.84,1.07,1.56,2,2.18,2.67a2.53,2.53,0,0,0,1.49.88,2.89,2.89,0,0,0,.48,0,0.12,0.12,0,0,1,.14.1c0,0.1-.11.12-0.32,0.12h-0.88Zm-5.15-8.91a3.84,3.84,0,0,0-.82.07,0.13,0.13,0,0,0-.08.13v4a0.13,0.13,0,0,0,.08.13,3.36,3.36,0,0,0,1.28.19,1.58,1.58,0,0,0,.91-0.23,2.24,2.24,0,0,0,.74-1.88C188.16,158.64,187.37,157.73,186.05,157.73Z" transform="translate(0 -26.83)"/><path d="M184.14,160.88c0-1.92,0-2.26,0-2.66a0.6,0.6,0,0,0-.53-0.7,2.26,2.26,0,0,0-.42,0,0.09,0.09,0,0,1-.1-0.07c0-.07.06-0.1,0.2-0.1,0.55,0,1.33,0,1.39,0s1.07,0,1.45,0a3.79,3.79,0,0,1,2.25.54,2.14,2.14,0,0,1,.85,1.67,3.79,3.79,0,0,1-1.49,2.84c1,1.29,1.85,2.39,2.56,3.15a2.54,2.54,0,0,0,1.5.89,2.92,2.92,0,0,0,.48,0,0.1,0.1,0,0,1,.11.07c0,0.07-.08.1-0.3,0.1h-0.88a2.52,2.52,0,0,1-1.32-.23,6.45,6.45,0,0,1-1.66-1.81c-0.52-.68-1.09-1.5-1.34-1.82a0.19,0.19,0,0,0-.16-0.07l-1.51,0a0.08,0.08,0,0,0-.09.1V163c0,1.18,0,2.15.06,2.67a0.59,0.59,0,0,0,.48.68l0.55,0a0.08,0.08,0,0,1,.1.07c0,0.06-.06.1-0.2,0.1-0.68,0-1.45,0-1.51,0s-0.79,0-1.16,0c-0.14,0-.2,0-0.2-0.1a0.08,0.08,0,0,1,.1-0.07,1.92,1.92,0,0,0,.37,0,0.66,0.66,0,0,0,.35-0.68c0.06-.52.06-1.49,0.06-2.67v-2.16Zm1,1.07a0.16,0.16,0,0,0,.09.15,3.37,3.37,0,0,0,1.29.2,1.59,1.59,0,0,0,.92-0.23,2.24,2.24,0,0,0,.75-1.89c0-1.54-.81-2.46-2.13-2.46a3.76,3.76,0,0,0-.83.07,0.15,0.15,0,0,0-.1.15v4Z" transform="translate(0 -26.83)"/><path d="M204.81,166.64c-0.52,0-1.1,0-1.37,0h-0.35l-1,0c-0.11,0-.22,0-0.22-0.12a0.1,0.1,0,0,1,.12-0.1,1.94,1.94,0,0,0,.37,0,0.64,0.64,0,0,0,.36-0.65c0-.52,0-1,0-1.23v-1.06a2.6,2.6,0,0,0-.28-1.27c-0.09-.2-1.73-2.9-2.17-3.55a3.51,3.51,0,0,0-.83-0.9,1.17,1.17,0,0,0-.52-0.19,0.12,0.12,0,0,1-.15-0.11s0-.11.18-0.11l0.92,0h0.47c0.2,0,.53,0,0.87,0,0.13,0,.18,0,0.18.11a0.14,0.14,0,0,1-.12.1l-0.07,0a0.23,0.23,0,0,0-.15.2,1,1,0,0,0,.16.47c0.19,0.35,2,3.51,2.26,3.89,0.2-.52,1.78-3.25,2-3.62a1.19,1.19,0,0,0,.2-0.61,0.28,0.28,0,0,0-.18-0.32c-0.12,0-.2-0.07-0.2-0.14s0-.1.22-0.1l0.61,0h0.53l0.86,0c0.11,0,.18,0,0.18.1a0.15,0.15,0,0,1-.18.12,1.15,1.15,0,0,0-.55.17,2.3,2.3,0,0,0-.64.62,39,39,0,0,0-2.35,3.91,2.94,2.94,0,0,0-.18,1.22v1.06c0,0.2,0,.71,0,1.23a0.57,0.57,0,0,0,.48.65l0.55,0a0.1,0.1,0,0,1,.12.1C205,166.57,205,166.64,204.81,166.64Z" transform="translate(0 -26.83)"/><path d="M202.78,163.43a2.63,2.63,0,0,0-.28-1.29c-0.09-.2-1.74-2.9-2.17-3.54a3.49,3.49,0,0,0-.84-0.91,1.19,1.19,0,0,0-.53-0.2,0.1,0.1,0,0,1-.12-0.08s0-.09.16-0.09l1.22,0c0.09,0,.55,0,1,0,0.14,0,.16,0,0.16.09a0.26,0.26,0,0,1-.18.11,0.25,0.25,0,0,0-.16.22,1,1,0,0,0,.16.48c0.2,0.36,2,3.53,2.26,3.89,0.24-.52,1.8-3.21,2-3.62a1.2,1.2,0,0,0,.21-0.63,0.3,0.3,0,0,0-.2-0.35,0.21,0.21,0,0,1-.19-0.12s0.07-.08.2-0.08c0.32,0,.71,0,0.81,0l1.19,0c0.09,0,.16,0,0.16.08s-0.06.1-.16,0.1a1.17,1.17,0,0,0-.57.17,2.34,2.34,0,0,0-.65.63A38.84,38.84,0,0,0,204,162.2a3,3,0,0,0-.18,1.23v1.06c0,0.2,0,.71,0,1.23a0.6,0.6,0,0,0,.5.68l0.55,0a0.08,0.08,0,0,1,.1.07c0,0.06-.06.1-0.2,0.1-0.68,0-1.45,0-1.51,0s-0.84,0-1.21,0c-0.14,0-.2,0-0.2-0.1a0.08,0.08,0,0,1,.1-0.07,1.92,1.92,0,0,0,.37,0,0.64,0.64,0,0,0,.38-0.68c0-.52,0-1,0-1.23v-1.06Z" transform="translate(0 -26.83)"/></svg>